<svg width="20" height="11" viewBox="0 0 20 11" fill="none" xmlns="http://www.w3.org/2000/svg">
<path d="M2.264 2.52791C1.7258 2.85528 1.02427 2.98908 0.15918 2.92968V1.79889C0.870397 1.79889 1.39408 1.70961 1.73042 1.53105C2.06688 1.35248 2.34069 1.02011 2.55212 0.534183H3.61883V10.205H2.26377V2.52804L2.264 2.52791ZM10.2646 3.16764C10.2646 2.7016 10.1253 2.34434 9.84664 2.0965C9.56809 1.84854 9.16911 1.72462 8.65006 1.72462C8.1791 1.72462 7.80205 1.85354 7.51829 2.11126C7.23489 2.36923 7.09313 2.70635 7.09313 3.123C7.09313 3.40073 7.16038 3.6782 7.29511 3.95593L6.08423 4.46186C5.85342 4.08498 5.73818 3.62869 5.73818 3.09299C5.73818 2.26957 6.00729 1.61258 6.54549 1.12177C7.08369 0.630593 7.7995 0.385254 8.69343 0.385254C9.60638 0.385254 10.3319 0.630718 10.8701 1.12177C11.4083 1.61258 11.6774 2.26982 11.6774 3.09299C11.6774 3.76736 11.478 4.39472 11.0791 4.97505C10.6801 5.55526 10.0437 6.14785 9.16911 6.75295C8.15996 7.44745 7.53525 8.05217 7.29511 8.56786C7.5258 8.42906 7.7755 8.35979 8.0446 8.35979C8.24646 8.35979 8.45304 8.3893 8.66459 8.44894C8.87589 8.50847 9.12586 8.59775 9.41422 8.71667C9.58712 8.78594 9.76256 8.84809 9.94031 8.90236C10.1182 8.957 10.2646 8.98414 10.38 8.98414C10.5913 8.98414 10.7692 8.90724 10.9134 8.75343C11.0574 8.59975 11.1487 8.3888 11.1871 8.12107L12.3259 8.73117C12.2874 9.23711 12.095 9.63375 11.7492 9.92123C11.4032 10.2091 10.9372 10.3528 10.351 10.3528C10.0437 10.3528 9.76717 10.318 9.52218 10.2486C9.27707 10.1792 9.00554 10.075 8.70773 9.93599C8.43863 9.81707 8.21024 9.73016 8.02293 9.67552C7.83561 9.621 7.63133 9.59374 7.41021 9.59374C7.15093 9.59374 6.97779 9.63575 6.89128 9.72016C6.80489 9.80456 6.75678 9.93586 6.74709 10.1144V10.2037H5.52192L5.49295 9.80206C5.49295 9.1377 5.75236 8.44819 6.27141 7.73393C6.79047 7.01967 7.5207 6.34043 8.46273 5.69557C9.08732 5.25928 9.54375 4.83763 9.83223 4.4311C10.1205 4.02446 10.2646 3.60293 10.2646 3.16639V3.16764ZM13.1334 4.67044H15.512V2.17103H16.8094V4.67044H19.1881V5.92015H16.8094V8.41956H15.512V5.92015H13.1334V4.67044Z" fill="white"/>
</svg>
