<svg width="20" height="21" viewBox="0 0 20 21" fill="none" xmlns="http://www.w3.org/2000/svg">
<path d="M9.67736 0.139499C4.367 0.30779 0.101124 4.6156 0 9.94265H3.74079C7.01947 9.94265 9.67736 7.28475 9.67736 4.00607V0.139499Z" fill="white"/>
<path d="M9.67736 20.133C4.40995 19.966 0.170197 15.7263 0.00326894 10.4589H3.74079C7.01947 10.4589 9.67736 13.1168 9.67736 16.3954V20.133Z" fill="white"/>
<path d="M19.9967 10.4589C19.8285 15.7692 15.5206 20.0351 10.1936 20.1362V16.3954C10.1936 13.1168 12.8515 10.4589 16.1302 10.4589H19.9967Z" fill="white"/>
<path d="M10.1936 0.13623C15.5637 0.23817 19.8981 4.57251 20 9.94265H16.1302C12.8515 9.94265 10.1936 7.28475 10.1936 4.00607V0.13623Z" fill="white"/>
</svg>
