<svg width="251" height="52" viewBox="0 0 251 52" fill="none" xmlns="http://www.w3.org/2000/svg">
<path fill-rule="evenodd" clip-rule="evenodd" d="M87.6779 41.76C87.1822 41.76 86.7797 42.1662 86.7797 42.6682V50.0197H74.5686V1.75663H98.0617C101.439 6.58523 103.579 13.754 103.579 21.758C103.579 29.7619 101.439 36.9307 98.0617 41.76H87.6779ZM90.5235 21.758C90.5235 15.3346 90.269 10.6254 87.9369 10.6254C86.912 10.6254 86.7797 12.0244 86.7797 14.9416V27.6045C86.7797 31.0515 86.7797 32.7296 87.8048 32.7296C90.137 32.7296 90.5235 28.1815 90.5235 21.758ZM245.635 41.76C247.88 36.3218 249.229 29.3543 249.229 21.758C249.229 14.1623 247.88 7.19499 245.635 1.75663H221.274C219.029 7.19499 217.681 14.1623 217.681 21.758C217.681 29.3543 219.029 36.3218 221.274 41.76H245.635ZM233.454 7.85199C235.787 7.85199 236.174 14.078 236.174 21.758C236.174 29.4381 235.787 35.6643 233.454 35.6643C231.122 35.6643 230.736 29.4381 230.736 21.758C230.736 14.078 231.122 7.85199 233.454 7.85199ZM199.508 27.9218C199.508 20.176 199.121 10.5872 196.788 10.5872C194.456 10.5872 194.07 17.9972 194.07 27.9218C194.07 33.4886 194.249 38.446 194.584 41.7602H181.951C181.346 37.4403 181.015 32.7811 181.015 27.9218C181.015 17.9569 182.405 8.83011 184.712 1.75682H208.866C211.173 8.82991 212.563 17.9567 212.563 27.9218C212.563 32.7811 212.232 37.4401 211.626 41.7602H199.009C199.366 38.4787 199.508 35.6672 199.508 27.9218ZM161.844 34.0403C162.375 34.0403 162.71 34.4404 162.743 34.9537C162.652 37.6117 162.425 39.8992 162.368 41.76H174.96C175.566 37.4401 175.897 32.7809 175.897 27.9216C175.897 17.9567 174.507 8.82991 172.2 1.75663H148.046C145.739 8.82971 144.349 17.9565 144.349 27.9216C144.349 32.7809 144.68 37.4399 145.286 41.76H157.835C157.757 39.5189 157.503 37.168 157.503 34.9489C157.503 34.447 157.906 34.0403 158.402 34.0403H161.844ZM162.834 25.6841C162.771 16.9043 162.276 10.5872 160.123 10.5872C157.968 10.5872 157.474 16.9139 157.411 25.7047C157.418 26.2 157.818 26.6003 158.31 26.6003H161.935C162.471 26.6003 162.796 26.1995 162.834 25.6841ZM50.6509 23.0845L50.6514 23.0765C50.6514 22.5748 51.0539 22.1678 51.5503 22.1678H51.5523L69.1385 22.1712C69.1392 22.0336 69.1399 21.8959 69.1399 21.7582C69.1399 14.1625 67.7914 7.19518 65.5466 1.75682H41.1848C38.9401 7.19518 37.5916 14.1625 37.5916 21.7582C37.5916 29.3545 38.9401 36.322 41.1848 41.7602H65.5466C67.3633 37.3584 68.5928 31.956 68.9959 26.029H56.0299C55.8615 31.6195 55.2456 35.6645 53.3657 35.6645C51.1697 35.6645 50.6989 30.1423 50.6509 23.0845ZM55.8925 14.6671C55.6027 10.587 54.9115 7.85199 53.3657 7.85199C51.8253 7.85199 51.1335 10.5703 50.8416 14.6299C50.8468 15.1265 51.2474 15.5281 51.7397 15.5281H54.9957C55.4757 15.5281 55.8683 15.1464 55.8925 14.6671ZM29.2336 1.75682C31.0502 6.15792 32.2798 11.561 32.6822 17.4879H19.7163C19.5479 11.8974 18.9326 7.85199 17.0527 7.85199C14.7206 7.85199 14.3333 14.078 14.3333 21.758C14.3333 29.4381 14.7206 35.6643 17.0527 35.6643C18.9326 35.6643 19.548 31.6194 19.7163 26.0289H32.6822C32.2798 31.9558 31.0502 37.3582 29.2336 41.76H4.87185C2.62727 36.3219 1.27869 29.3544 1.27869 21.758C1.27869 14.1624 2.62727 7.19499 4.87185 1.75663L29.2336 1.75682ZM108.313 34.4078C108.809 34.4078 109.212 34.0008 109.212 33.4988C109.212 30.648 108.633 27.348 108.633 24.204C108.633 15.5193 110.165 7.62387 112.666 1.75672H134.361C136.861 7.62387 138.393 18.2527 138.393 24.204C138.393 30.1552 138.183 30.5306 137.791 33.4677C137.901 33.979 138.049 34.4078 138.693 34.4078H140.752C140.45 36.9607 140.059 39.4191 139.587 41.7599H107.44C106.967 39.4191 106.575 36.9607 106.274 34.4078H108.313ZM126.078 24.204C126.078 23.5582 126.073 22.888 126.062 22.207C125.974 16.77 125.468 10.637 123.513 10.637C121.313 10.637 120.948 16.2028 120.948 24.204C120.948 27.7084 121.018 30.9214 121.281 33.4266C121.478 33.7363 121.344 34.4078 122.204 34.4078H124.848C125.301 34.4078 125.617 34.0907 125.722 33.6334C126.003 31.0989 126.078 30.0052 126.078 24.204ZM88.0585 43.0531V51.3129H73.2898V0.463783H98.7229L99.1058 1.01105C101.03 3.76325 102.419 6.96933 103.349 10.327C104.391 14.0892 104.858 18.0415 104.858 21.758C104.858 25.4749 104.391 29.427 103.349 33.189C102.419 36.5469 101.031 39.7532 99.1058 42.5056L98.7231 43.0531H88.0585ZM87.552 50.8006V42.5407H98.4624L98.6926 42.2115C100.583 39.5087 101.948 36.3554 102.863 33.0508C103.891 29.3385 104.351 25.4336 104.351 21.7578C104.351 18.0822 103.891 14.1773 102.863 10.4647C101.947 7.16025 100.583 4.00741 98.6926 1.30472L98.4624 0.975723H73.7967V50.8003L87.552 50.8006ZM220.422 43.0531L220.094 42.2575C218.844 39.23 217.946 35.976 217.349 32.6568C216.696 29.0267 216.402 25.3241 216.402 21.7582C216.402 18.1924 216.695 14.49 217.349 10.8601C217.946 7.54091 218.844 4.287 220.094 1.25954L220.422 0.463979H246.487L246.815 1.25954C248.065 4.2874 248.963 7.5416 249.561 10.8611C250.214 14.4905 250.507 18.1926 250.507 21.7582C250.507 25.3241 250.214 29.0263 249.561 32.6559C248.963 35.9755 248.065 39.2298 246.815 42.2575L246.487 43.0531H220.422ZM220.759 42.5409H246.15L246.348 42.0615C247.585 39.0649 248.474 35.8465 249.064 32.5657C249.71 28.9748 250.001 25.3023 250.001 21.758C250.001 18.214 249.711 14.5419 249.064 10.9509C248.474 7.67022 247.585 4.45224 246.348 1.45529L246.15 0.97592H220.759L220.561 1.45529C219.324 4.45174 218.436 7.66943 217.845 10.9499C217.199 14.5413 216.909 18.2138 216.909 21.758C216.909 25.3025 217.199 28.9751 217.845 32.5668C218.436 35.8472 219.324 39.0651 220.561 42.0615L220.759 42.5409ZM196.352 11.7177C196.437 11.5836 196.534 11.4649 196.63 11.4112L196.781 11.3265L196.915 11.4402C197.052 11.5573 197.184 11.7889 197.297 12.0476C197.467 12.4314 197.609 12.8932 197.66 13.0761C197.837 13.7196 197.972 14.4004 198.078 15.0867C198.184 15.7703 198.261 16.4553 198.327 17.1126C198.506 18.8919 198.608 20.7021 198.665 22.5147C198.723 24.3481 198.736 26.1522 198.736 27.9216V28.0086C198.736 32.5659 198.736 37.1239 198.241 41.6735L198.147 42.5408H212.297L212.391 41.8705C212.71 39.5995 212.944 37.3118 213.099 35.0179C213.259 32.6596 213.335 30.2901 213.335 27.9215C213.335 23.3315 213.048 18.5462 212.382 13.8346C211.783 9.60589 210.879 5.43351 209.6 1.51197L209.425 0.975822H184.153L183.978 1.51197C182.699 5.43351 181.794 9.60589 181.196 13.8346C180.53 18.5462 180.243 23.3315 180.243 27.9215C180.243 30.2897 180.319 32.6588 180.479 35.0166C180.634 37.3109 180.868 39.5989 181.186 41.8702L181.28 42.5406H195.44L195.353 41.6804C195.252 40.6763 195.175 39.6714 195.115 38.6688C195.056 37.6733 195.011 36.6646 194.974 35.6555C194.927 34.3716 194.894 33.082 194.873 31.7886C194.852 30.4567 194.842 29.1707 194.842 27.9213C194.842 26.8256 194.847 25.6956 194.861 24.4883C194.876 23.3401 194.9 22.1944 194.939 21.0542C194.971 20.1475 195.01 19.2382 195.069 18.3418C195.128 17.4384 195.209 16.5322 195.322 15.6307C195.388 15.1015 195.472 14.5001 195.592 13.9084C195.714 13.3087 195.873 12.7159 196.09 12.2108C196.117 12.1477 196.233 11.9049 196.352 11.7177ZM196.74 12.0537C196.65 12.2054 196.572 12.368 196.552 12.4131C196.352 12.8804 196.202 13.4399 196.087 14.0108C195.969 14.5897 195.887 15.1779 195.822 15.6953C195.712 16.5753 195.633 17.4722 195.573 18.3742C195.514 19.2831 195.475 20.1832 195.444 21.0716C195.404 22.2155 195.38 23.3565 195.366 24.4946C195.352 25.5741 195.348 26.732 195.348 27.9216C195.348 29.2466 195.357 30.5374 195.377 31.7808C195.398 33.063 195.431 34.3486 195.478 35.6378C195.515 36.6284 195.559 37.6286 195.62 38.6388C195.68 39.6418 195.756 40.6408 195.855 41.6286L195.999 43.0531H180.842L180.686 41.9406C180.366 39.6559 180.13 37.3557 179.975 35.051C179.814 32.6726 179.737 30.2924 179.737 27.9216C179.737 23.313 180.025 18.5037 180.696 13.7627C181.298 9.50374 182.21 5.30153 183.498 1.35205L183.787 0.463783H209.791L210.081 1.35205C211.368 5.30153 212.28 9.50374 212.882 13.7627C213.553 18.5036 213.841 23.313 213.841 27.9216C213.841 30.2926 213.764 32.673 213.603 35.0521C213.447 37.3564 213.212 39.6562 212.891 41.9408L212.735 43.0531H197.583L197.739 41.6196C198.229 37.1077 198.229 32.5576 198.229 28.0086V27.9216C198.229 26.1248 198.217 24.3107 198.161 22.5307C198.104 20.7301 198.003 18.9314 197.825 17.1623C197.76 16.5096 197.683 15.832 197.579 15.1643C197.476 14.499 197.346 13.838 197.173 13.2117C197.126 13.0408 196.993 12.6108 196.837 12.2553C196.805 12.1825 196.772 12.1144 196.74 12.0537ZM158.784 35.3331C158.799 36.5281 158.879 37.7374 158.959 38.9463C159.019 39.8621 159.08 40.7777 159.113 41.7144L159.16 43.0531H144.176L144.02 41.9408C143.7 39.6564 143.465 37.3565 143.308 35.0522C143.147 32.6732 143.07 30.2927 143.07 27.9216C143.07 23.313 143.359 18.5035 144.03 13.7624C144.632 9.50345 145.544 5.30134 146.832 1.35205L147.121 0.463783H173.125L173.414 1.35205C174.702 5.30153 175.613 9.50374 176.216 13.7627C176.887 18.5036 177.175 23.313 177.175 27.9216C177.175 30.2922 177.098 32.6724 176.937 35.051C176.781 37.3557 176.546 39.6559 176.226 41.9406L176.07 43.0531H161.049L161.09 41.7206C161.127 40.5405 161.204 39.383 161.281 38.225C161.345 37.2559 161.409 36.2862 161.45 35.3329L158.784 35.3331ZM158.454 38.9804C158.369 37.6856 158.283 36.3906 158.277 35.0782L158.276 34.8209H161.975L161.965 35.086C161.925 36.1604 161.855 37.2101 161.786 38.2591C161.708 39.4256 161.63 40.5917 161.595 41.735L161.57 42.5409H175.632L175.725 41.8705C176.044 39.5991 176.278 37.3112 176.433 35.0169C176.592 32.6589 176.669 30.29 176.669 27.9218C176.669 23.3318 176.382 18.5465 175.716 13.8349C175.117 9.60619 174.212 5.4338 172.934 1.51227L172.759 0.976117H147.487L147.312 1.51227C146.033 5.4336 145.128 9.60579 144.53 13.8346C143.863 18.5465 143.577 23.3319 143.577 27.922C143.577 30.2907 143.653 32.6602 143.813 35.0186C143.968 37.3125 144.202 39.6002 144.521 41.871L144.615 42.5412H158.636L158.608 41.7328C158.577 40.8301 158.515 39.9048 158.454 38.9804ZM51.9317 23.4596C51.9379 24.1644 51.9487 24.8717 51.9671 25.5815C51.9872 26.3665 52.0177 27.1572 52.0627 27.9544C52.099 28.5963 52.1434 29.2446 52.2062 29.8852C52.2686 30.5225 52.3504 31.162 52.4617 31.7953C52.5253 32.157 52.6076 32.573 52.717 32.9709C52.8251 33.3646 52.961 33.7472 53.1327 34.0523C53.1659 34.1111 53.2232 34.2089 53.2904 34.2886C53.3284 34.3339 53.3611 34.3714 53.3659 34.3714C53.421 34.3714 53.518 34.2167 53.6231 34.0091C53.8648 33.5322 54.0511 32.8346 54.0978 32.6389C54.2079 32.1799 54.2943 31.7017 54.3648 31.2176C54.4365 30.7256 54.4903 30.2415 54.5352 29.7698C54.5943 29.1481 54.6392 28.518 54.6741 27.8835C54.7093 27.2441 54.7341 26.6138 54.7529 25.9905L54.7907 24.736H70.3654L70.2714 26.1171C70.0789 28.9482 69.6911 31.8363 69.0693 34.6693C68.4964 37.2784 67.7255 39.837 66.7268 42.2573L66.3983 43.0531H40.3338L40.0054 42.2575C38.7556 39.2299 37.8573 35.9757 37.2598 32.6561C36.6064 29.0264 36.3131 25.3241 36.3131 21.7583C36.3131 18.1927 36.6064 14.4904 37.2598 10.8608C37.8575 7.5415 38.7556 4.2871 40.0054 1.25954L40.3338 0.464078H66.3983L66.7268 1.25954C67.9766 4.2871 68.8749 7.5415 69.4724 10.8608C70.1255 14.4904 70.419 18.1927 70.419 21.7583L70.4109 23.4634L51.9317 23.4596ZM51.4624 25.5935C51.4419 24.8007 51.431 24.0035 51.4252 23.2056L51.4231 22.9494L69.9082 22.953C69.91 22.5547 69.9119 22.1563 69.9119 21.758C69.9119 18.2138 69.6216 14.5417 68.9754 10.9506C68.3848 7.66993 67.4963 4.45174 66.2594 1.45529L66.0614 0.97592H40.67L40.4721 1.45529C39.2352 4.45174 38.3464 7.67012 37.756 10.9506C37.1098 14.5417 36.8195 18.2138 36.8195 21.758C36.8195 25.3023 37.1096 28.9748 37.756 32.5661C38.3464 35.8467 39.2352 39.0649 40.4721 42.0615L40.67 42.5409H66.0616L66.2596 42.0615C67.2484 39.6655 68.0107 37.1358 68.5764 34.5592C69.1916 31.7569 69.5755 28.8941 69.7666 26.0832L69.8235 25.2482H55.2799L55.2571 26.0045C55.2378 26.6465 55.2128 27.2845 55.1783 27.9114C55.1436 28.5437 55.0979 29.1794 55.0374 29.8177C54.9904 30.3116 54.9356 30.8084 54.8652 31.2916C54.7937 31.7823 54.7043 32.2743 54.5881 32.7589C54.538 32.9684 54.3378 33.7168 54.0721 34.2411C53.8856 34.6092 53.6506 34.8836 53.3657 34.8836C53.1817 34.8836 53.0261 34.764 52.9043 34.6187C52.8113 34.5078 52.7363 34.3804 52.6933 34.3041C52.4991 33.9591 52.3483 33.5372 52.2303 33.107C52.1133 32.6808 52.0281 32.2522 51.9632 31.8833C51.8515 31.2482 51.7682 30.5947 51.7038 29.9352C51.6395 29.2797 51.5943 28.6259 51.558 27.9825C51.5462 27.7739 51.5354 27.5645 51.5256 27.3545C51.4984 26.7719 51.4778 26.184 51.4624 25.5935ZM30.4134 1.25935C31.4123 3.6795 32.1831 6.23852 32.7559 8.84753C33.3777 11.6806 33.7654 14.5688 33.9577 17.3999L34.0514 18.781H18.4769L18.4393 17.5266C18.4205 16.9033 18.3957 16.2729 18.3604 15.6335C18.3256 14.9991 18.2806 14.3689 18.2214 13.7472C18.1769 13.2755 18.1231 12.7914 18.0513 12.2993C17.9809 11.8149 17.8944 11.3368 17.7845 10.8779C17.7376 10.6824 17.5515 9.98439 17.3099 9.50728C17.2047 9.29963 17.1076 9.14503 17.0527 9.14503C17.0427 9.14503 16.9997 9.1965 16.9522 9.2581C16.8754 9.3577 16.8106 9.47707 16.7762 9.5437C16.5935 9.8965 16.4519 10.3357 16.3401 10.7871C16.2254 11.2506 16.1438 11.7188 16.0811 12.1239C15.9743 12.8163 15.8965 13.5308 15.8371 14.2533C15.7773 14.9829 15.7378 15.6994 15.7072 16.4021C15.668 17.298 15.644 18.1901 15.6298 19.078C15.6165 19.9236 15.6123 20.8278 15.6123 21.758C15.6123 22.6882 15.6165 23.5924 15.6298 24.4381C15.6438 25.326 15.668 26.2181 15.7072 27.114C15.7377 27.8165 15.7773 28.5331 15.8371 29.2628C15.8963 29.9855 15.9743 30.6998 16.0811 31.3922C16.1436 31.7975 16.2253 32.2654 16.3401 32.7289C16.4518 33.1804 16.5936 33.6196 16.7762 33.9724C16.8106 34.039 16.8755 34.1586 16.9522 34.258C16.9997 34.3195 17.0427 34.3711 17.0527 34.3711C17.1078 34.3711 17.2047 34.2164 17.3099 34.009C17.5515 33.5319 17.7376 32.8342 17.7845 32.6387C17.8945 32.1799 17.9809 31.7015 18.0513 31.2173C18.1231 30.7252 18.1767 30.2412 18.2214 29.7696C18.2806 29.1477 18.3256 28.5176 18.3604 27.8833C18.3957 27.2439 18.4205 26.6136 18.4393 25.9902L18.4769 24.7358H34.0514L33.9577 26.1169C33.7656 28.9479 33.3779 31.8359 32.7561 34.6686C32.1833 37.2778 31.4126 39.837 30.4136 42.2573L30.0852 43.0531H4.02052L3.69204 42.2575C2.44254 39.2296 1.54421 35.9754 0.946612 32.6559C0.293346 29.0264 0 25.3239 0 21.758C0 18.1924 0.293346 14.4902 0.946612 10.8607C1.54421 7.5412 2.44254 4.287 3.69204 1.25935L4.02052 0.463783H30.085L30.4134 1.25935ZM32.2632 8.95755C31.6977 6.38082 30.9354 3.85113 29.9464 1.45529L29.7485 0.97592H4.35689L4.15892 1.45529C2.92208 4.45214 2.03347 7.67012 1.44308 10.9508C0.796629 14.5419 0.506495 18.214 0.506495 21.758C0.506495 25.3023 0.796629 28.9748 1.44308 32.5659C2.03357 35.8465 2.92208 39.0645 4.15892 42.0615L4.35689 42.5409H29.7487L29.9466 42.0615C30.9354 39.6652 31.6978 37.1353 32.2634 34.5584C32.8785 31.7565 33.2623 28.8938 33.4532 26.0831L33.5098 25.2483H18.9665L18.9436 26.0046C18.9243 26.6467 18.8993 27.2847 18.8648 27.9116C18.83 28.5439 18.7844 29.1795 18.7239 29.8181C18.6769 30.3119 18.6222 30.8089 18.552 31.2917C18.4806 31.7824 18.3913 32.2746 18.2751 32.759C18.225 32.9683 18.0247 33.7167 17.7591 34.2412C17.5727 34.6093 17.338 34.8836 17.0529 34.8836C16.8541 34.8836 16.6854 34.7416 16.5547 34.5723C16.4533 34.4408 16.372 34.2915 16.3291 34.2087C16.1241 33.8125 15.9692 33.3363 15.8496 32.8531C15.7329 32.3818 15.6481 31.8947 15.5825 31.4703C15.4712 30.7477 15.3914 30.0238 15.3328 29.3048C15.2743 28.5929 15.2345 27.8636 15.2026 27.1361C15.1638 26.2458 15.1398 25.3478 15.1252 24.4464C15.1104 23.5024 15.1055 22.616 15.1055 21.7582C15.1055 20.9002 15.1104 20.0139 15.1252 19.07C15.1396 18.1684 15.1636 17.2705 15.2026 16.3803C15.2345 15.6527 15.2743 14.9235 15.3328 14.2116C15.3914 13.4926 15.4712 12.7687 15.5825 12.0461C15.648 11.6217 15.7329 11.1345 15.8496 10.6632C15.9692 10.18 16.1241 9.70401 16.3291 9.3079C16.3719 9.22494 16.4533 9.07565 16.5547 8.94427C16.6854 8.7749 16.8541 8.63299 17.0529 8.63299C17.3378 8.63299 17.5728 8.90736 17.7591 9.27542C18.0249 9.79996 18.225 10.5486 18.2751 10.7579C18.3913 11.2423 18.4806 11.7344 18.552 12.2252C18.6222 12.708 18.6771 13.2051 18.7239 13.6992C18.7846 14.3375 18.83 14.9734 18.8648 15.6055C18.8993 16.2326 18.9243 16.8706 18.9436 17.5125L18.9665 18.2689H33.5098L33.4532 17.4342C33.2623 14.6232 32.8783 11.7598 32.2632 8.95755ZM107.93 33.1145C107.91 31.8888 107.795 30.648 107.681 29.4221L107.65 29.0802C107.575 28.2606 107.5 27.4406 107.447 26.6506C107.391 25.8325 107.354 25.0159 107.354 24.2038C107.354 20.2066 107.677 15.9782 108.421 11.8432C109.085 8.15441 110.085 4.54455 111.491 1.24527L111.824 0.463684H135.201L135.535 1.24527C136.941 4.54435 137.94 8.15421 138.605 11.8431C139.349 15.9778 139.672 20.2064 139.672 24.2039C139.672 25.75 139.624 27.3036 139.525 28.8591C139.436 30.2789 139.302 31.6988 139.125 33.1146H142.192L142.021 34.5607C141.875 35.8012 141.703 37.0488 141.505 38.3014C141.309 39.5455 141.087 40.7854 140.838 42.0184L140.629 43.053H106.396L106.187 42.0184C105.938 40.7852 105.716 39.5455 105.52 38.3014C105.322 37.0488 105.15 35.8012 105.004 34.5607L104.833 33.1146L107.93 33.1145ZM108.184 29.3761C108.306 30.6982 108.43 32.0372 108.438 33.3696L108.439 33.6269H105.403L105.506 34.5009C105.654 35.7533 105.824 36.9945 106.018 38.2215C106.214 39.4573 106.435 40.6898 106.682 41.9167L106.808 42.541H140.217L140.344 41.9167C140.591 40.6901 140.812 39.4575 141.007 38.2215C141.201 36.9946 141.371 35.7533 141.519 34.5009L141.622 33.6269H138.55L138.588 33.3378C138.781 31.8437 138.925 30.3384 139.021 28.8271C139.118 27.2933 139.165 25.7503 139.165 24.2038C139.165 20.2276 138.846 16.0291 138.108 11.933C137.451 8.2854 136.462 4.71401 135.07 1.44732L134.869 0.976019H112.157L111.956 1.44751C110.564 4.71431 109.574 8.28599 108.918 11.9334C108.18 16.0294 107.861 20.2279 107.861 24.2041C107.861 25.0132 107.897 25.817 107.951 26.6169C108.008 27.4448 108.08 28.2411 108.153 29.0344L108.184 29.3761ZM88.1605 31.1978C88.2832 31.0327 88.3895 30.8004 88.4785 30.5565C88.6418 30.1092 88.7391 29.6332 88.7864 29.3968C88.8922 28.8673 88.9686 28.3192 89.0257 27.7671C89.0827 27.2152 89.1208 26.6581 89.1507 26.111C89.1906 25.381 89.2145 24.657 89.2281 23.9383C89.241 23.2517 89.245 22.5141 89.245 21.758C89.245 20.9865 89.2426 20.2353 89.2331 19.5593C89.2226 18.8323 89.2039 18.1016 89.1707 17.3666C89.1458 16.8066 89.1136 16.2386 89.0637 15.6788C89.0137 15.1171 88.9454 14.5579 88.8476 14.0129C88.806 13.7812 88.7118 13.2628 88.5478 12.7864C88.4501 12.502 88.3312 12.2345 88.1941 12.0734C88.0564 12.8374 88.0573 14.3924 88.0576 14.8829C88.1323 19.169 88.0733 23.5492 88.0567 27.843C88.0528 28.567 88.0435 30.2844 88.1605 31.1978ZM88.9533 30.7328C88.7634 31.253 88.4838 31.7434 88.0775 31.8975L87.821 31.9947L87.7458 31.7285C87.535 30.9795 87.5472 28.7107 87.552 27.8409C87.5688 23.5229 87.5518 19.2014 87.5518 14.8828C87.5523 14.2902 87.5511 12.2032 87.8055 11.5777L87.8875 11.376L88.0962 11.4257C88.5361 11.5308 88.8302 12.0539 89.0242 12.6184C89.1999 13.129 89.2998 13.6778 89.3437 13.9229C89.4438 14.4825 89.5143 15.0566 89.5655 15.6327C89.6171 16.2099 89.6496 16.7834 89.6747 17.3446C89.7075 18.0741 89.7263 18.812 89.7371 19.5533C89.7483 20.3457 89.7511 21.0633 89.7511 21.7579C89.7511 22.456 89.7468 23.1762 89.7321 23.9462C89.7181 24.6839 89.694 25.4169 89.6547 26.1391C89.6245 26.6914 89.5858 27.2556 89.5276 27.8193C89.4693 28.3829 89.3907 28.9464 89.2806 29.4971C89.2301 29.7497 89.1266 30.2578 88.9533 30.7328ZM233.454 9.14463C233.444 9.14463 233.401 9.1962 233.354 9.25781C233.277 9.35721 233.212 9.47658 233.178 9.5434C232.995 9.89621 232.854 10.3354 232.742 10.7868C232.627 11.2503 232.545 11.7184 232.483 12.1236C232.376 12.8162 232.298 13.5305 232.239 14.2529C232.179 14.9826 232.14 15.6991 232.109 16.4018C232.07 17.2979 232.046 18.1898 232.032 19.0779C232.019 19.9235 232.015 20.8277 232.015 21.7579C232.015 22.6881 232.019 23.5923 232.032 24.438C232.046 25.3259 232.07 26.2178 232.109 27.1141C232.14 27.8166 232.179 28.5332 232.239 29.2629C232.298 29.9854 232.376 30.6999 232.483 31.3923C232.545 31.7974 232.627 32.2657 232.742 32.729C232.854 33.1805 232.995 33.6197 233.178 33.9725C233.212 34.0391 233.277 34.1587 233.354 34.2581C233.401 34.3196 233.444 34.3712 233.454 34.3712C233.465 34.3712 233.508 34.3197 233.555 34.2581C233.632 34.1587 233.697 34.0391 233.731 33.9725C233.914 33.6197 234.056 33.1805 234.167 32.729C234.282 32.2657 234.364 31.7977 234.426 31.3923C234.533 30.6999 234.611 29.9854 234.67 29.2629C234.73 28.5332 234.77 27.8166 234.8 27.1141C234.839 26.2182 234.863 25.3261 234.878 24.4382C234.891 23.5925 234.895 22.6879 234.895 21.7581C234.895 20.8283 234.891 19.9235 234.878 19.0781C234.864 18.1902 234.839 17.2981 234.8 16.4021C234.77 15.6997 234.73 14.983 234.67 14.2534C234.611 13.5307 234.533 12.8164 234.426 12.124C234.364 11.7187 234.282 11.2506 234.167 10.7872C234.056 10.3358 233.914 9.8966 233.731 9.54379C233.697 9.47717 233.632 9.3576 233.555 9.2582C233.508 9.19669 233.465 9.14463 233.454 9.14463ZM232.956 8.94378C233.087 8.77441 233.256 8.6325 233.454 8.6325C233.653 8.6325 233.822 8.77441 233.953 8.94378C234.054 9.07525 234.136 9.22455 234.178 9.30741C234.383 9.70362 234.538 10.1798 234.658 10.6627C234.774 11.1341 234.859 11.6213 234.925 12.0457C235.036 12.7682 235.116 13.492 235.175 14.2111C235.233 14.923 235.273 15.6523 235.305 16.3799C235.344 17.2701 235.368 18.1681 235.382 19.0696C235.397 20.0136 235.402 20.8995 235.402 21.7577C235.402 22.6162 235.397 23.5021 235.382 24.4459C235.368 25.3474 235.344 26.2453 235.305 27.1356C235.273 27.8631 235.233 28.5924 235.175 29.3044C235.116 30.0235 235.036 30.7472 234.925 31.4698C234.859 31.8942 234.774 32.3814 234.658 32.8527C234.538 33.3359 234.383 33.8119 234.178 34.2082C234.135 34.2911 234.054 34.4402 233.953 34.5718C233.822 34.7412 233.653 34.8831 233.454 34.8831C233.256 34.8831 233.087 34.7412 232.956 34.5718C232.855 34.4406 232.774 34.2912 232.731 34.2084C232.526 33.8123 232.371 33.3361 232.251 32.8529C232.135 32.3818 232.05 31.8944 231.985 31.47C231.873 30.7475 231.794 30.0235 231.735 29.3046C231.677 28.5928 231.637 27.8633 231.605 27.1358C231.566 26.2453 231.542 25.3474 231.528 24.4459C231.513 23.5019 231.508 22.6156 231.508 21.7577C231.508 20.8997 231.513 20.0134 231.528 19.0696C231.542 18.1679 231.566 17.2699 231.605 16.3797C231.637 15.6521 231.677 14.9226 231.735 14.2109C231.794 13.4919 231.873 12.768 231.985 12.0454C232.05 11.6213 232.135 11.1339 232.251 10.6625C232.371 10.1793 232.526 9.70342 232.731 9.30721C232.774 9.22435 232.855 9.07506 232.956 8.94378ZM161.553 25.3067C161.546 24.414 161.533 23.5186 161.513 22.6212C161.491 21.6475 161.458 20.6685 161.41 19.6838C161.373 18.9197 161.327 18.1419 161.261 17.3503C161.196 16.5739 161.112 15.7993 160.998 15.0361C160.932 14.5983 160.849 14.0973 160.735 13.6106C160.623 13.1297 160.481 12.6598 160.296 12.2747C160.277 12.2358 160.202 12.0952 160.123 11.9768C160.043 12.0957 159.968 12.2368 159.949 12.2762C159.764 12.662 159.622 13.1326 159.509 13.6143C159.396 14.1019 159.312 14.6035 159.247 15.042C159.132 15.8065 159.048 16.5821 158.984 17.3596C158.918 18.1523 158.872 18.9311 158.835 19.6963C158.787 20.679 158.755 21.6559 158.733 22.6276C158.712 23.5231 158.7 24.416 158.692 25.3068L161.553 25.3067ZM162.017 22.6115C162.04 23.5922 162.053 24.5769 162.06 25.5618L162.062 25.8191H158.184L158.186 25.5618C158.193 24.5788 158.206 23.5962 158.228 22.6177C158.251 21.6292 158.283 20.6459 158.331 19.6722C158.369 18.8819 158.415 18.0903 158.479 17.3174C158.545 16.5288 158.63 15.7418 158.746 14.9658C158.813 14.5193 158.898 14.0063 159.017 13.4984C159.137 12.9848 159.291 12.4784 159.494 12.0541C159.521 11.9984 159.642 11.773 159.759 11.6143C159.864 11.4734 159.988 11.3676 160.123 11.3676C160.258 11.3676 160.382 11.4732 160.487 11.6139C160.604 11.7725 160.724 11.9972 160.751 12.0526C160.954 12.4762 161.108 12.9819 161.228 13.4947C161.346 14.0016 161.432 14.5138 161.499 14.9599C161.615 15.7345 161.7 16.5208 161.766 17.3083C161.83 18.0804 161.876 18.8707 161.915 19.6599C161.962 20.6355 161.995 21.621 162.017 22.6115ZM160.125 11.8879L160.135 11.8804L160.11 11.8806C160.115 11.8838 160.12 11.8896 160.125 11.8879ZM160.125 11.8879C160.135 11.8841 160.141 11.8815 160.135 11.8804L160.125 11.8879ZM160.11 11.8806C160.106 11.8817 160.111 11.8839 160.119 11.8872L160.11 11.8806ZM54.5781 14.2348C54.5284 13.607 54.4636 12.9365 54.3673 12.2764C54.2573 11.5248 54.1065 10.7878 53.8901 10.1458C53.843 10.0061 53.6962 9.60422 53.5204 9.33359C53.45 9.22523 53.3894 9.14463 53.3659 9.14463C53.3426 9.14463 53.2831 9.22395 53.2133 9.33122C53.0382 9.59979 52.8919 9.99777 52.8451 10.1364C52.6274 10.7799 52.4756 11.5197 52.3654 12.2732C52.2685 12.9352 52.2035 13.6072 52.1536 14.2351L54.5781 14.2348ZM54.8678 12.2023C54.9806 12.9737 55.0506 13.757 55.1038 14.4719L55.1241 14.747H51.6073L51.6278 14.4719C51.6811 13.7575 51.7514 12.9724 51.8646 12.1989C51.9786 11.419 52.1368 10.6495 52.3663 9.97228C52.4188 9.81718 52.5838 9.3697 52.7917 9.05104C52.9483 8.81082 53.1407 8.6325 53.3657 8.6325C53.592 8.6325 53.7846 8.81171 53.9418 9.05331C54.1507 9.37502 54.3163 9.82584 54.3687 9.98153C54.5966 10.6575 54.7541 11.4247 54.8678 12.2023ZM123.45 12.0163L123.449 12.0177C123.389 12.0955 123.339 12.1887 123.31 12.2431C123.14 12.5627 123.009 12.9673 122.906 13.3834C122.8 13.8131 122.725 14.2472 122.668 14.6173C122.565 15.2878 122.492 15.9803 122.437 16.6799C122.381 17.3876 122.345 18.0819 122.316 18.762C122.278 19.672 122.256 20.578 122.243 21.4804C122.23 22.3342 122.227 23.2564 122.227 24.2038C122.227 25.6941 122.23 27.2104 122.27 28.6774C122.31 30.1621 122.387 31.6463 122.533 33.1005L122.537 33.1146H124.493C124.542 32.6536 124.587 32.1901 124.626 31.7179C124.671 31.1681 124.707 30.6261 124.729 30.0908C124.802 28.3047 124.801 26.5053 124.8 24.7198L124.8 24.2038C124.799 22.8274 124.786 21.433 124.732 20.0641C124.678 18.6845 124.583 17.304 124.421 15.949C124.361 15.4383 124.288 14.9066 124.194 14.3905C124.099 13.8731 123.98 13.36 123.825 12.8803C123.782 12.75 123.665 12.4259 123.532 12.1653C123.503 12.1103 123.476 12.0592 123.45 12.0163ZM123.047 11.7077C123.152 11.5695 123.288 11.4476 123.451 11.4223L123.544 11.4078L123.626 11.4614C123.754 11.5455 123.876 11.7263 123.981 11.9309C124.129 12.2209 124.259 12.5784 124.305 12.722C124.467 13.2209 124.591 13.7567 124.69 14.298C124.79 14.8404 124.863 15.3785 124.924 15.8888C125.086 17.2483 125.182 18.6435 125.236 20.044C125.291 21.4548 125.305 22.846 125.305 24.2038L125.304 24.7198C125.305 26.5151 125.306 28.3244 125.233 30.1107C125.21 30.6772 125.174 31.2238 125.13 31.76C125.086 32.2957 125.031 32.8419 124.97 33.3986L124.945 33.6268H122.156L122.091 33.3905C122.077 33.3389 122.063 33.2877 122.046 33.2386L122.036 33.2102L122.033 33.1809C121.884 31.7079 121.806 30.1998 121.765 28.6897C121.724 27.1526 121.72 25.6613 121.72 24.2041C121.72 23.3353 121.724 22.4386 121.738 21.4746C121.751 20.5589 121.774 19.647 121.812 18.7422C121.841 18.0378 121.877 17.3301 121.932 16.64C121.987 15.9417 122.062 15.2392 122.169 14.5396C122.229 14.1508 122.307 13.6976 122.416 13.2594C122.527 12.808 122.672 12.3635 122.865 12.0012C122.901 11.933 122.965 11.8156 123.047 11.7077Z" fill="#CFCFCF"/>
</svg>
