<svg width="230" height="48" viewBox="0 0 230 48" fill="none" xmlns="http://www.w3.org/2000/svg">
<path fill-rule="evenodd" clip-rule="evenodd" d="M80.4596 38.7904C80.0065 38.7904 79.6387 39.1642 79.6387 39.6262V46.3915H68.4773V1.97642H89.9507C93.0374 6.42004 94.9934 13.0172 94.9934 20.3831C94.9934 27.7489 93.0374 34.3461 89.9507 38.7904H80.4596ZM83.0605 20.3831C83.0605 14.4718 82.8279 10.1381 80.6963 10.1381C79.7596 10.1381 79.6387 11.4255 79.6387 14.1102V25.7635C79.6387 28.9357 79.6386 30.48 80.5756 30.48C82.7073 30.48 83.0605 26.2945 83.0605 20.3831ZM224.837 38.7904C226.889 33.7857 228.122 27.3738 228.122 20.3831C228.122 13.393 226.889 6.98119 224.837 1.97642H202.57C200.518 6.98119 199.286 13.393 199.286 20.3831C199.286 27.3738 200.518 33.7857 202.57 38.7904H224.837ZM213.704 7.5858C215.836 7.5858 216.189 13.3155 216.189 20.3831C216.189 27.4509 215.835 33.1807 213.704 33.1807C211.572 33.1807 211.219 27.4509 211.219 20.3831C211.219 13.3155 211.572 7.5858 213.704 7.5858ZM182.676 26.0555C182.676 18.9272 182.322 10.1029 180.19 10.1029C178.058 10.1029 177.705 16.9222 177.705 26.0555C177.705 31.1784 177.869 35.7406 178.175 38.7906H166.628C166.075 34.8151 165.773 30.5274 165.773 26.0555C165.773 16.885 167.043 8.48594 169.151 1.9766H191.229C193.338 8.48576 194.608 16.8849 194.608 26.0555C194.608 30.5274 194.306 34.8149 193.752 38.7906H182.22C182.546 35.7707 182.676 33.1834 182.676 26.0555ZM148.25 31.6861C148.735 31.6861 149.041 32.0544 149.072 32.5267C148.989 34.9728 148.781 37.0779 148.728 38.7904H160.238C160.792 34.8149 161.094 30.5272 161.094 26.0553C161.094 16.8849 159.824 8.48576 157.716 1.97642H135.638C133.529 8.48558 132.259 16.8847 132.259 26.0553C132.259 30.5272 132.561 34.8148 133.115 38.7904H144.586C144.514 36.728 144.282 34.5645 144.282 32.5223C144.282 32.0605 144.65 31.6861 145.104 31.6861H148.25ZM149.154 23.9962C149.097 15.9164 148.644 10.1029 146.677 10.1029C144.707 10.1029 144.255 15.9252 144.198 24.0151C144.204 24.4709 144.57 24.8394 145.019 24.8394H148.333C148.823 24.8394 149.12 24.4705 149.154 23.9962ZM46.6158 21.6039L46.6163 21.5965C46.6163 21.1348 46.9841 20.7603 47.4379 20.7603H47.4397L63.514 20.7633C63.5147 20.6367 63.5153 20.51 63.5153 20.3833C63.5153 13.3932 62.2827 6.98137 60.2309 1.9766H37.9635C35.9118 6.98137 34.6792 13.3932 34.6792 20.3833C34.6792 27.3739 35.9118 33.7859 37.9635 38.7906H60.2309C61.8914 34.7397 63.0153 29.7681 63.3837 24.3136H51.5323C51.3784 29.4584 50.8155 33.1809 49.0972 33.1809C47.09 33.1809 46.6597 28.0989 46.6158 21.6039ZM51.4068 13.8576C51.1419 10.1027 50.5101 7.5858 49.0972 7.5858C47.6892 7.5858 47.0569 10.0874 46.7901 13.8234C46.7949 14.2804 47.161 14.6499 47.611 14.6499H50.5871C51.0258 14.6499 51.3846 14.2986 51.4068 13.8576ZM27.0397 1.9766C28.7002 6.0268 29.824 10.9991 30.1919 16.4535H18.3406C18.1867 11.3087 17.6243 7.5858 15.9061 7.5858C13.7744 7.5858 13.4204 13.3155 13.4204 20.3831C13.4204 27.4509 13.7744 33.1807 15.9061 33.1807C17.6243 33.1807 18.1868 29.4583 18.3406 24.3135H30.1919C29.824 29.7679 28.7002 34.7395 27.0397 38.7904H4.77235C2.72074 33.7858 1.4881 27.3738 1.4881 20.3831C1.4881 13.3931 2.72074 6.98119 4.77235 1.97642L27.0397 1.9766ZM99.3206 32.0243C99.7743 32.0243 100.142 31.6498 100.142 31.1879C100.142 28.5643 99.6134 25.5274 99.6134 22.6341C99.6134 14.6418 101.014 7.37587 103.299 1.97651H123.129C125.415 7.37587 126.815 17.1573 126.815 22.6341C126.815 28.1108 126.623 28.4563 126.264 31.1592C126.365 31.6297 126.5 32.0243 127.089 32.0243H128.971C128.695 34.3737 128.338 36.6361 127.906 38.7903H98.5228C98.0907 36.6361 97.7325 34.3737 97.4567 32.0243H99.3206ZM115.558 22.6341C115.558 22.0398 115.554 21.423 115.544 20.7963C115.463 15.7928 115.001 10.1487 113.214 10.1487C111.203 10.1487 110.869 15.2708 110.869 22.6341C110.869 25.8591 110.934 28.8159 111.174 31.1214C111.354 31.4064 111.231 32.0243 112.017 32.0243H114.434C114.848 32.0243 115.137 31.7325 115.233 31.3117C115.49 28.9793 115.558 27.9728 115.558 22.6341ZM80.8075 39.9804V47.5817H67.3084V0.786651H90.555L90.9051 1.29029C92.6642 3.82306 93.9336 6.77352 94.7837 9.86345C95.736 13.3257 96.1624 16.9629 96.1624 20.3831C96.1624 23.8036 95.736 27.4407 94.7837 30.9028C93.9337 33.9929 92.6644 36.9436 90.9051 39.4766L90.5552 39.9804H80.8075ZM80.3446 47.1102V39.5088H90.317L90.5274 39.2058C92.2548 36.7185 93.5025 33.8167 94.339 30.7755C95.2786 27.3593 95.6996 23.7657 95.6996 20.383C95.6996 17.0004 95.2786 13.4068 94.339 9.99024C93.5023 6.94922 92.2548 4.04775 90.5274 1.56054L90.317 1.25778H67.7717V47.1099L80.3446 47.1102ZM201.792 39.9804L201.492 39.2482C200.35 36.4621 199.529 33.4675 198.983 30.413C198.386 27.0723 198.117 23.6649 198.117 20.3833C198.117 17.1018 198.386 13.6946 198.983 10.354C199.529 7.29953 200.35 4.30505 201.492 1.51897L201.792 0.786832H225.616L225.916 1.51897C227.058 4.30541 227.879 7.30016 228.425 10.355C229.022 13.695 229.291 17.1019 229.291 20.3833C229.291 23.6649 229.023 27.0719 228.425 30.4122C227.879 33.467 227.058 36.4619 225.916 39.2482L225.616 39.9804H201.792ZM202.099 39.509H225.308L225.489 39.0678C226.62 36.3102 227.432 33.3484 227.972 30.3291C228.562 27.0245 228.828 23.6448 228.828 20.3831C228.828 17.1217 228.562 13.7423 227.972 10.4376C227.432 7.41853 226.62 4.45711 225.489 1.6991L225.308 1.25796H202.099L201.918 1.6991C200.788 4.45666 199.976 7.41781 199.436 10.4367C198.846 13.7418 198.58 17.1215 198.58 20.3831C198.58 23.645 198.846 27.0248 199.436 30.3301C199.976 33.349 200.788 36.3104 201.918 39.0678L202.099 39.509ZM179.791 11.1433C179.869 11.0199 179.957 10.9107 180.045 10.8612L180.183 10.7833L180.305 10.8879C180.431 10.9957 180.551 11.2088 180.655 11.4469C180.81 11.8001 180.94 12.225 180.986 12.3934C181.149 12.9856 181.271 13.6122 181.368 14.2437C181.465 14.8728 181.536 15.5032 181.597 16.1081C181.76 17.7455 181.853 19.4114 181.905 21.0795C181.958 22.7667 181.97 24.427 181.97 26.0553V26.1354C181.97 30.3293 181.97 34.5239 181.518 38.7108L181.431 39.5089H194.365L194.451 38.892C194.742 36.8021 194.956 34.6968 195.098 32.5858C195.244 30.4155 195.314 28.2349 195.314 26.0552C195.314 21.8311 195.052 17.4273 194.443 13.0914C193.896 9.19987 193.069 5.36015 191.9 1.75127L191.74 1.25787H168.641L168.481 1.75127C167.312 5.36015 166.485 9.19987 165.938 13.0914C165.329 17.4273 165.067 21.8311 165.067 26.0552C165.067 28.2346 165.137 30.4148 165.282 32.5847C165.424 34.696 165.638 36.8016 165.929 38.8918L166.015 39.5087H178.957L178.878 38.7172C178.785 37.7931 178.715 36.8683 178.661 35.9457C178.606 35.0295 178.566 34.1013 178.532 33.1726C178.488 31.9911 178.458 30.8043 178.439 29.614C178.42 28.3883 178.411 27.2048 178.411 26.055C178.411 25.0467 178.415 24.0068 178.429 22.8957C178.442 21.8391 178.464 20.7847 178.5 19.7354C178.529 18.901 178.565 18.0642 178.618 17.2392C178.673 16.4079 178.746 15.574 178.849 14.7443C178.91 14.2574 178.987 13.7039 179.097 13.1593C179.208 12.6074 179.353 12.0619 179.551 11.5971C179.576 11.539 179.682 11.3156 179.791 11.1433ZM180.146 11.4525C180.063 11.5921 179.992 11.7418 179.974 11.7833C179.791 12.2133 179.654 12.7282 179.548 13.2536C179.441 13.7863 179.366 14.3276 179.307 14.8037C179.206 15.6136 179.134 16.439 179.079 17.2691C179.025 18.1055 178.989 18.9339 178.961 19.7514C178.924 20.8041 178.902 21.8541 178.89 22.9015C178.877 23.8949 178.874 24.9605 178.874 26.0553C178.874 27.2747 178.882 28.4625 178.9 29.6068C178.919 30.7867 178.949 31.9699 178.993 33.1563C179.026 34.0679 179.066 34.9884 179.122 35.918C179.176 36.8411 179.246 37.7604 179.337 38.6694L179.469 39.9804H165.614L165.472 38.9566C165.179 36.854 164.964 34.7372 164.822 32.6163C164.674 30.4275 164.604 28.237 164.604 26.0553C164.604 21.8141 164.868 17.3883 165.481 13.0253C166.031 9.10587 166.864 5.2387 168.042 1.6041L168.306 0.786651H192.074L192.339 1.6041C193.516 5.2387 194.349 9.10587 194.9 13.0253C195.513 17.3882 195.777 21.8141 195.777 26.0553C195.777 28.2372 195.706 30.4279 195.559 32.6173C195.417 34.7379 195.202 36.8543 194.909 38.9568L194.766 39.9804H180.916L181.058 38.6612C181.507 34.509 181.507 30.3217 181.507 26.1354V26.0553C181.507 24.4017 181.496 22.7322 181.444 21.0942C181.393 19.4372 181.3 17.7819 181.138 16.1538C181.078 15.5532 181.007 14.9296 180.913 14.3151C180.819 13.7028 180.7 13.0946 180.541 12.5182C180.498 12.3609 180.377 11.9652 180.234 11.638C180.205 11.5711 180.175 11.5084 180.146 11.4525ZM145.453 32.8759C145.466 33.9756 145.539 35.0885 145.612 36.201C145.668 37.0438 145.723 37.8864 145.753 38.7484L145.796 39.9804H132.101L131.958 38.9568C131.665 36.8545 131.45 34.738 131.308 32.6174C131.16 30.4281 131.09 28.2373 131.09 26.0553C131.09 21.8141 131.353 17.3881 131.967 13.025C132.518 9.10559 133.351 5.23851 134.528 1.6041L134.793 0.786651H158.56L158.825 1.6041C160.002 5.2387 160.835 9.10587 161.386 13.0253C161.999 17.3882 162.263 21.8141 162.263 26.0553C162.263 28.2369 162.192 30.4273 162.045 32.6163C161.903 34.7372 161.688 36.854 161.395 38.9566L161.252 39.9804H147.523L147.561 38.7541C147.594 37.6681 147.664 36.6029 147.735 35.5372C147.794 34.6454 147.852 33.753 147.889 32.8757L145.453 32.8759ZM145.151 36.2324C145.073 35.0408 144.995 33.849 144.989 32.6413L144.988 32.4045H148.369L148.36 32.6485C148.324 33.6372 148.26 34.6032 148.196 35.5686C148.125 36.6421 148.054 37.7152 148.022 38.7673L148 39.509H160.852L160.938 38.892C161.229 36.8018 161.442 34.6963 161.584 32.5849C161.73 30.4149 161.8 28.2349 161.8 26.0555C161.8 21.8314 161.538 17.4276 160.929 13.0917C160.382 9.20015 159.555 5.36042 158.386 1.75154L158.226 1.25814H135.127L134.967 1.75154C133.798 5.36024 132.971 9.19978 132.424 13.0914C131.815 17.4276 131.553 21.8316 131.553 26.0557C131.553 28.2355 131.623 30.4161 131.769 32.5865C131.911 34.6975 132.124 36.8028 132.416 38.8925L132.502 39.5093H145.318L145.292 38.7653C145.263 37.9346 145.207 37.0831 145.151 36.2324ZM47.7864 21.949C47.7921 22.5977 47.802 23.2486 47.8188 23.9017C47.8372 24.6242 47.8651 25.3519 47.9062 26.0855C47.9394 26.6762 47.98 27.2728 48.0374 27.8624C48.0944 28.4489 48.1692 29.0374 48.2709 29.6202C48.329 29.953 48.4043 30.3358 48.5043 30.7021C48.6031 31.0643 48.7273 31.4164 48.8842 31.6972C48.9146 31.7514 48.967 31.8413 49.0283 31.9146C49.0631 31.9563 49.093 31.9909 49.0974 31.9909C49.1477 31.9909 49.2364 31.8485 49.3325 31.6574C49.5534 31.2186 49.7237 30.5766 49.7664 30.3965C49.867 29.9741 49.946 29.534 50.0104 29.0885C50.0759 28.6357 50.1251 28.1902 50.1661 27.7561C50.2201 27.184 50.2612 26.6041 50.2931 26.0203C50.3253 25.4318 50.348 24.8518 50.3652 24.2781L50.3997 23.1237H64.6354L64.5495 24.3947C64.3736 27.0001 64.0191 29.6579 63.4507 32.265C62.9271 34.666 62.2225 37.0207 61.3096 39.2481L61.0094 39.9804H37.1856L36.8855 39.2482C35.7431 36.462 34.922 33.4672 34.3759 30.4123C33.7787 27.072 33.5106 23.6649 33.5106 20.3834C33.5106 17.102 33.7787 13.6949 34.3759 10.3548C34.9222 7.30007 35.7431 4.30514 36.8855 1.51897L37.1856 0.786922H61.0094L61.3096 1.51897C62.452 4.30514 63.2731 7.30007 63.8192 10.3548C64.4161 13.6949 64.6844 17.102 64.6844 20.3834L64.6771 21.9526L47.7864 21.949ZM47.3576 23.9128C47.3388 23.1832 47.3288 22.4496 47.3235 21.7153L47.3216 21.4795L64.2176 21.4828C64.2192 21.1163 64.221 20.7497 64.221 20.3831C64.221 17.1215 63.9556 13.7421 63.365 10.4374C62.8251 7.41826 62.013 4.45666 60.8824 1.6991L60.7015 1.25796H37.493L37.312 1.6991C36.1815 4.45666 35.3691 7.41844 34.8295 10.4374C34.2388 13.7421 33.9734 17.1215 33.9734 20.3831C33.9734 23.6448 34.2386 27.0245 34.8295 30.3295C35.3691 33.3486 36.1815 36.3102 37.312 39.0678L37.493 39.509H60.7017L60.8826 39.0678C61.7864 36.8629 62.4832 34.5349 63.0002 32.1637C63.5626 29.5848 63.9134 26.9503 64.0881 24.3634L64.1401 23.5951H50.8469L50.826 24.2911C50.8084 24.8818 50.7855 25.469 50.754 26.0459C50.7222 26.6278 50.6805 27.2128 50.6252 27.8002C50.5822 28.2548 50.5321 28.712 50.4678 29.1566C50.4024 29.6082 50.3208 30.0609 50.2145 30.5069C50.1687 30.6997 49.9857 31.3885 49.7429 31.871C49.5724 32.2097 49.3576 32.4622 49.0972 32.4622C48.9291 32.4622 48.7868 32.3522 48.6754 32.2184C48.5905 32.1164 48.5219 31.9991 48.4826 31.929C48.3051 31.6114 48.1673 31.2232 48.0594 30.8273C47.9524 30.4351 47.8746 30.0407 47.8153 29.7011C47.7131 29.1167 47.6371 28.5153 47.5782 27.9084C47.5194 27.3051 47.4781 26.7035 47.4449 26.1114C47.4342 25.9194 47.4243 25.7266 47.4153 25.5334C47.3904 24.9972 47.3716 24.4563 47.3576 23.9128ZM28.1181 1.51879C29.0311 3.74599 29.7357 6.10098 30.2592 8.50197C30.8276 11.1092 31.1819 13.7671 31.3577 16.3724L31.4433 17.6434H17.2078L17.1734 16.4891C17.1562 15.9154 17.1335 15.3354 17.1013 14.7469C17.0695 14.1631 17.0284 13.5831 16.9743 13.011C16.9335 12.5769 16.8844 12.1314 16.8188 11.6786C16.7544 11.2327 16.6754 10.7927 16.5749 10.3704C16.5321 10.1906 16.362 9.54819 16.1411 9.10913C16.0449 8.91803 15.9562 8.77575 15.9061 8.77575C15.8969 8.77575 15.8576 8.82312 15.8142 8.87981C15.744 8.97147 15.6847 9.08132 15.6533 9.14264C15.4863 9.46731 15.3569 9.87151 15.2547 10.2869C15.1499 10.7134 15.0752 11.1443 15.018 11.5171C14.9204 12.1543 14.8492 12.8118 14.7949 13.4768C14.7402 14.1482 14.7042 14.8075 14.6762 15.4542C14.6404 16.2787 14.6184 17.0997 14.6054 17.9168C14.5933 18.695 14.5894 19.5271 14.5894 20.3831C14.5894 21.2392 14.5933 22.0713 14.6054 22.8495C14.6183 23.6666 14.6403 24.4876 14.6762 25.3121C14.7041 25.9586 14.7402 26.6181 14.7949 27.2895C14.849 27.9546 14.9204 28.612 15.018 29.2492C15.0751 29.6222 15.1498 30.0528 15.2547 30.4794C15.3568 30.8948 15.4864 31.299 15.6533 31.6237C15.6847 31.685 15.7441 31.795 15.8142 31.8865C15.8576 31.9431 15.8969 31.9905 15.9061 31.9905C15.9564 31.9905 16.0449 31.8483 16.1411 31.6574C16.362 31.2183 16.5321 30.5763 16.5749 30.3963C16.6755 29.9741 16.7544 29.5338 16.8188 29.0883C16.8844 28.6353 16.9334 28.1899 16.9743 27.7559C17.0284 27.1837 17.0695 26.6038 17.1013 26.0201C17.1335 25.4317 17.1562 24.8516 17.1734 24.2778L17.2078 23.1235H31.4433L31.3577 24.3945C31.1821 26.9998 30.8278 29.6575 30.2594 32.2643C29.7359 34.6655 29.0314 37.0207 28.1183 39.2481L27.8182 39.9804H3.99421L3.69397 39.2482C2.55189 36.4617 1.73079 33.4669 1.18457 30.4122C0.587463 27.072 0.319336 23.6647 0.319336 20.3831C0.319336 17.1018 0.587463 13.6948 1.18457 10.3547C1.73079 7.2998 2.55189 4.30505 3.69397 1.51879L3.99421 0.786651H27.818L28.1181 1.51879ZM29.8089 8.60322C29.292 6.23193 28.5952 3.90393 27.6913 1.6991L27.5104 1.25796H4.30166L4.12072 1.6991C2.9902 4.45702 2.17799 7.41844 1.63836 10.4375C1.04748 13.7423 0.782287 17.1217 0.782287 20.3831C0.782287 23.6448 1.04748 27.0245 1.63836 30.3293C2.17808 33.3484 2.9902 36.3098 4.12072 39.0678L4.30166 39.509H27.5105L27.6915 39.0678C28.5952 36.8626 29.2921 34.5344 29.8091 32.163C30.3712 29.5845 30.7221 26.95 30.8965 24.3633L30.9483 23.5952H17.6553L17.6344 24.2912C17.6167 24.882 17.5939 25.4692 17.5623 26.0461C17.5306 26.6279 17.4888 27.2129 17.4335 27.8006C17.3906 28.2551 17.3406 28.7124 17.2764 29.1567C17.2112 29.6083 17.1295 30.0612 17.0233 30.507C16.9775 30.6996 16.7945 31.3884 16.5517 31.8711C16.3813 32.2098 16.1668 32.4622 15.9062 32.4622C15.7245 32.4622 15.5703 32.3315 15.4508 32.1758C15.3581 32.0548 15.2839 31.9174 15.2446 31.8411C15.0573 31.4765 14.9157 31.0382 14.8063 30.5937C14.6997 30.1599 14.6222 29.7116 14.5622 29.321C14.4604 28.6561 14.3876 27.9899 14.3339 27.3282C14.2805 26.673 14.2441 26.002 14.215 25.3324C14.1795 24.5131 14.1575 23.6867 14.1442 22.8571C14.1307 21.9884 14.1262 21.1727 14.1262 20.3833C14.1262 19.5937 14.1307 18.778 14.1442 17.9094C14.1574 17.0797 14.1793 16.2534 14.215 15.4342C14.2441 14.7646 14.2805 14.0935 14.3339 13.4384C14.3876 12.7767 14.4604 12.1105 14.5622 11.4455C14.6221 11.0549 14.6997 10.6066 14.8063 10.1729C14.9157 9.72824 15.0573 9.29017 15.2446 8.92564C15.2838 8.84929 15.3581 8.7119 15.4508 8.591C15.5703 8.43513 15.7245 8.30454 15.9062 8.30454C16.1666 8.30454 16.3814 8.55704 16.5517 8.89575C16.7947 9.37847 16.9775 10.0674 17.0233 10.26C17.1295 10.7058 17.2112 11.1586 17.2764 11.6104C17.3406 12.0547 17.3908 12.5121 17.4335 12.9668C17.489 13.5542 17.5306 14.1394 17.5623 14.7211C17.5939 15.2982 17.6167 15.8854 17.6344 16.4761L17.6553 17.1722H30.9483L30.8965 16.404C30.7221 13.8172 30.3711 11.1821 29.8089 8.60322ZM98.971 30.8342C98.9522 29.7062 98.8472 28.5643 98.7434 27.4362L98.7146 27.1215C98.6458 26.3673 98.5778 25.6126 98.5287 24.8856C98.478 24.1328 98.4444 23.3812 98.4444 22.6339C98.4444 18.9554 98.7391 15.0641 99.4195 11.2588C100.027 7.86411 100.941 4.54206 102.226 1.50584L102.53 0.78656H123.898L124.202 1.50584C125.487 4.54188 126.401 7.86393 127.008 11.2587C127.689 15.0638 127.983 18.9552 127.983 22.634C127.983 24.0569 127.94 25.4865 127.85 26.918C127.768 28.2246 127.646 29.5313 127.484 30.8343H130.287L130.131 32.1651C129.997 33.3066 129.84 34.4548 129.66 35.6076C129.48 36.7524 129.277 37.8935 129.05 39.0282L128.858 39.9803H97.5687L97.3778 39.0282C97.1502 37.8933 96.9473 36.7524 96.7675 35.6076C96.5866 34.4548 96.4299 33.3066 96.2957 32.1651L96.1394 30.8343L98.971 30.8342ZM99.2027 27.3939C99.3145 28.6105 99.428 29.8428 99.4349 31.0689L99.4361 31.3057H96.6607L96.7552 32.11C96.8905 33.2625 97.0461 34.4049 97.2234 35.534C97.4019 36.6713 97.6037 37.8055 97.8301 38.9346L97.9454 39.5092H128.482L128.598 38.9346C128.824 37.8058 129.026 36.6714 129.204 35.534C129.381 34.4049 129.537 33.2625 129.672 32.11L129.766 31.3057H126.958L126.993 31.0397C127.17 29.6647 127.301 28.2794 127.389 26.8886C127.477 25.4771 127.521 24.0571 127.521 22.6339C127.521 18.9748 127.229 15.1109 126.555 11.3415C125.954 7.98466 125.05 4.69802 123.777 1.69177L123.594 1.25805H102.834L102.651 1.69195C101.378 4.69829 100.474 7.9852 99.8735 11.3419C99.1993 15.1112 98.9075 18.975 98.9075 22.6342C98.9075 23.3788 98.9405 24.1185 98.9901 24.8546C99.0415 25.6165 99.1075 26.3493 99.1742 27.0793L99.2027 27.3939ZM80.9007 29.0702C81.0128 28.9184 81.11 28.7045 81.1914 28.4801C81.3407 28.0685 81.4295 27.6304 81.4728 27.4129C81.5695 26.9256 81.6393 26.4212 81.6915 25.9131C81.7436 25.4052 81.7784 24.8925 81.8058 24.3891C81.8422 23.7172 81.8641 23.051 81.8765 22.3895C81.8883 21.7578 81.8919 21.079 81.8919 20.3831C81.8919 19.6731 81.8898 18.9818 81.8811 18.3597C81.8715 17.6907 81.8544 17.0183 81.8241 16.3418C81.8013 15.8265 81.7719 15.3038 81.7262 14.7886C81.6806 14.2717 81.6181 13.7571 81.5287 13.2555C81.4907 13.0423 81.4046 12.5652 81.2547 12.1268C81.1654 11.8651 81.0567 11.6189 80.9314 11.4706C80.8055 12.1737 80.8064 13.6047 80.8066 14.0561C80.8749 18.0005 80.821 22.0315 80.8058 25.9829C80.8023 26.6492 80.7937 28.2297 80.9007 29.0702ZM81.6253 28.6423C81.4518 29.121 81.1962 29.5724 80.8249 29.7142L80.5904 29.8036L80.5217 29.5587C80.329 28.8694 80.3401 26.7815 80.3446 25.981C80.3599 22.0073 80.3444 18.0303 80.3444 14.056C80.3448 13.5107 80.3437 11.5901 80.5762 11.0145L80.6512 10.8289L80.8419 10.8746C81.244 10.9713 81.5129 11.4527 81.6902 11.9722C81.8507 12.442 81.942 12.9471 81.9821 13.1727C82.0737 13.6877 82.1381 14.216 82.1849 14.7461C82.2321 15.2773 82.2617 15.8051 82.2847 16.3216C82.3147 16.9929 82.3319 17.672 82.3417 18.3542C82.352 19.0834 82.3545 19.7438 82.3545 20.3831C82.3545 21.0254 82.3506 21.6882 82.3372 22.3969C82.3244 23.0758 82.3024 23.7503 82.2665 24.4149C82.2389 24.9231 82.2035 25.4423 82.1503 25.9611C82.097 26.4798 82.0251 26.9984 81.9245 27.5052C81.8783 27.7377 81.7838 28.2052 81.6253 28.6423ZM213.704 8.77539C213.695 8.77539 213.655 8.82285 213.612 8.87954C213.542 8.97101 213.483 9.08087 213.451 9.14236C213.284 9.46704 213.155 9.87124 213.052 10.2867C212.948 10.7131 212.873 11.144 212.816 11.5168C212.718 12.1542 212.647 12.8116 212.593 13.4764C212.538 14.1479 212.502 14.8073 212.474 15.4539C212.438 16.2786 212.417 17.0994 212.404 17.9167C212.391 18.6949 212.388 19.527 212.388 20.3831C212.388 21.2391 212.391 22.0712 212.404 22.8494C212.417 23.6665 212.439 24.4873 212.474 25.3122C212.502 25.9587 212.538 26.6182 212.593 27.2896C212.647 27.9546 212.718 28.6121 212.816 29.2493C212.873 29.6221 212.948 30.0531 213.052 30.4794C213.155 30.8949 213.284 31.2991 213.451 31.6238C213.483 31.6851 213.542 31.7951 213.612 31.8866C213.655 31.9432 213.695 31.9906 213.704 31.9906C213.713 31.9906 213.753 31.9433 213.796 31.8866C213.866 31.7951 213.925 31.6851 213.957 31.6238C214.124 31.2991 214.253 30.8949 214.355 30.4794C214.46 30.0531 214.535 29.6223 214.592 29.2493C214.69 28.6121 214.761 27.9546 214.815 27.2896C214.87 26.6182 214.906 25.9587 214.934 25.3122C214.97 24.4877 214.992 23.6667 215.005 22.8496C215.017 22.0714 215.021 21.2389 215.021 20.3832C215.021 19.5276 215.017 18.6949 215.005 17.9169C214.992 17.0998 214.97 16.2788 214.934 15.4543C214.906 14.8078 214.87 14.1483 214.815 13.4769C214.761 12.8117 214.69 12.1544 214.592 11.5172C214.535 11.1442 214.46 10.7134 214.355 10.287C214.253 9.8716 214.124 9.46741 213.957 9.14273C213.925 9.08141 213.866 8.97138 213.796 8.8799C213.753 8.8233 213.713 8.77539 213.704 8.77539ZM213.248 8.59054C213.368 8.43468 213.522 8.30408 213.704 8.30408C213.886 8.30408 214.04 8.43468 214.159 8.59054C214.252 8.71154 214.326 8.84893 214.365 8.92519C214.553 9.28981 214.694 9.72805 214.804 10.1725C214.91 10.6063 214.988 11.0546 215.048 11.4452C215.15 12.11 215.222 12.7761 215.276 13.4379C215.33 14.0931 215.366 14.7643 215.395 15.4338C215.43 16.2531 215.452 17.0794 215.466 17.9091C215.479 18.7778 215.484 19.5931 215.484 20.3829C215.484 21.1729 215.479 21.9882 215.466 22.8567C215.453 23.6864 215.431 24.5127 215.395 25.3319C215.366 26.0015 215.33 26.6726 215.276 27.3278C215.222 27.9896 215.15 28.6556 215.048 29.3206C214.988 29.7112 214.91 30.1595 214.804 30.5933C214.694 31.0379 214.553 31.4759 214.365 31.8407C214.326 31.917 214.252 32.0542 214.159 32.1753C214.04 32.3312 213.886 32.4618 213.704 32.4618C213.522 32.4618 213.368 32.3312 213.248 32.1753C213.155 32.0546 213.082 31.9171 213.042 31.8408C212.855 31.4763 212.713 31.0381 212.604 30.5935C212.498 30.1598 212.42 29.7114 212.36 29.3207C212.258 28.6559 212.186 27.9896 212.132 27.328C212.079 26.673 212.042 26.0017 212.013 25.3321C211.978 24.5127 211.956 23.6864 211.943 22.8567C211.929 21.988 211.925 21.1723 211.925 20.3829C211.925 19.5932 211.929 18.7776 211.943 17.9091C211.956 17.0792 211.978 16.2529 212.013 15.4336C212.042 14.7641 212.079 14.0927 212.132 13.4377C212.186 12.7761 212.258 12.1099 212.36 11.4449C212.42 11.0546 212.498 10.6061 212.604 10.1723C212.713 9.7276 212.855 9.28962 213.042 8.925C213.082 8.84875 213.156 8.71136 213.248 8.59054ZM147.984 23.6489C147.977 22.8273 147.966 22.0034 147.947 21.1775C147.927 20.2814 147.897 19.3805 147.853 18.4743C147.819 17.7711 147.777 17.0553 147.717 16.3268C147.657 15.6123 147.581 14.8995 147.476 14.1971C147.416 13.7942 147.34 13.3332 147.236 12.8853C147.134 12.4428 147.004 12.0103 146.835 11.6559C146.818 11.6201 146.749 11.4907 146.676 11.3818C146.603 11.4912 146.535 11.6211 146.518 11.6573C146.349 12.0123 146.218 12.4454 146.116 12.8887C146.012 13.3374 145.936 13.799 145.876 14.2026C145.771 14.9061 145.694 15.6199 145.635 16.3354C145.575 17.0649 145.533 17.7816 145.499 18.4858C145.456 19.3901 145.426 20.2891 145.406 21.1834C145.387 22.0075 145.376 22.8292 145.369 23.649L147.984 23.6489ZM148.408 21.1685C148.429 22.071 148.44 22.9772 148.447 23.8836L148.449 24.1204H144.904L144.906 23.8836C144.913 22.979 144.924 22.0747 144.945 21.1742C144.965 20.2646 144.995 19.3597 145.038 18.4636C145.073 17.7364 145.115 17.0078 145.174 16.2965C145.234 15.5708 145.312 14.8466 145.418 14.1325C145.479 13.7216 145.557 13.2494 145.665 12.782C145.775 12.3094 145.916 11.8433 146.102 11.4529C146.126 11.4016 146.237 11.1942 146.344 11.0481C146.439 10.9185 146.553 10.8211 146.677 10.8211C146.8 10.8211 146.914 10.9183 147.009 11.0478C147.116 11.1938 147.226 11.4005 147.251 11.4515C147.436 11.8413 147.577 12.3067 147.687 12.7786C147.795 13.2451 147.873 13.7165 147.934 14.127C148.04 14.8399 148.118 15.5635 148.178 16.2882C148.237 16.9987 148.279 17.726 148.314 18.4523C148.358 19.3502 148.387 20.2571 148.408 21.1685ZM146.679 11.2999L146.688 11.293L146.665 11.2932C146.669 11.2962 146.674 11.3015 146.679 11.2999ZM146.679 11.2999C146.688 11.2965 146.693 11.294 146.688 11.293L146.679 11.2999ZM146.665 11.2932C146.661 11.2942 146.666 11.2963 146.673 11.2993L146.665 11.2932ZM50.2054 13.4597C50.1599 12.882 50.1007 12.2649 50.0127 11.6575C49.9122 10.9658 49.7743 10.2876 49.5765 9.69672C49.5335 9.56821 49.3993 9.19833 49.2386 8.94928C49.1742 8.84956 49.1189 8.77539 49.0974 8.77539C49.0761 8.77539 49.0217 8.84839 48.9579 8.9471C48.7978 9.19426 48.6641 9.56051 48.6213 9.68811C48.4223 10.2802 48.2836 10.9611 48.1829 11.6545C48.0943 12.2637 48.0349 12.8822 47.9893 13.46L50.2054 13.4597ZM50.4701 11.5893C50.5732 12.2991 50.6373 13.02 50.6859 13.6779L50.7044 13.931H47.4899L47.5087 13.6779C47.5575 13.0205 47.6217 12.298 47.7252 11.5861C47.8293 10.8685 47.974 10.1602 48.1837 9.53705C48.2317 9.39432 48.3825 8.98251 48.5726 8.68926C48.7156 8.46819 48.8915 8.30408 49.0972 8.30408C49.304 8.30408 49.4801 8.46901 49.6238 8.69134C49.8148 8.9874 49.9661 9.40229 50.0139 9.54556C50.2223 10.1677 50.3662 10.8737 50.4701 11.5893ZM113.156 11.4181L113.155 11.4194C113.101 11.491 113.055 11.5768 113.028 11.6269C112.873 11.9209 112.753 12.2932 112.659 12.6763C112.562 13.0717 112.493 13.4711 112.442 13.8118C112.348 14.4288 112.281 15.066 112.23 15.7099C112.179 16.3612 112.146 17.0001 112.12 17.626C112.085 18.4634 112.065 19.2972 112.053 20.1277C112.042 20.9134 112.038 21.762 112.038 22.6339C112.038 24.0054 112.041 25.4008 112.078 26.7508C112.114 28.1171 112.184 29.483 112.318 30.8212L112.322 30.8343H114.109C114.154 30.41 114.196 29.9835 114.231 29.5489C114.273 29.043 114.305 28.5441 114.325 28.0516C114.392 26.4079 114.391 24.7519 114.391 23.1087L114.39 22.6339C114.389 21.3672 114.377 20.084 114.328 18.8242C114.279 17.5547 114.192 16.2842 114.044 15.0372C113.989 14.5673 113.923 14.0779 113.836 13.603C113.75 13.1268 113.641 12.6547 113.499 12.2132C113.46 12.0933 113.353 11.795 113.231 11.5552C113.205 11.5046 113.18 11.4576 113.156 11.4181ZM112.788 11.1341C112.884 11.0069 113.008 10.8947 113.157 10.8715L113.243 10.8581L113.317 10.9074C113.434 10.9848 113.546 11.1512 113.641 11.3395C113.777 11.6064 113.896 11.9354 113.938 12.0676C114.086 12.5266 114.2 13.0198 114.29 13.5179C114.381 14.0171 114.448 14.5122 114.504 14.9819C114.652 16.233 114.739 17.5169 114.789 18.8058C114.84 20.1041 114.852 21.3844 114.852 22.6339L114.851 23.1087C114.852 24.7609 114.853 26.426 114.786 28.0698C114.765 28.5912 114.732 29.0942 114.692 29.5876C114.652 30.0807 114.602 30.5833 114.546 31.0957L114.523 31.3056H111.973L111.914 31.0881C111.901 31.0407 111.888 30.9936 111.873 30.9484L111.864 30.9222L111.861 30.8952C111.725 29.5397 111.654 28.1519 111.616 26.7622C111.578 25.3476 111.575 23.9752 111.575 22.6342C111.575 21.8346 111.579 21.0094 111.592 20.1223C111.604 19.2796 111.624 18.4404 111.659 17.6078C111.686 16.9595 111.719 16.3082 111.769 15.6732C111.819 15.0305 111.888 14.3841 111.986 13.7402C112.04 13.3824 112.112 12.9653 112.211 12.5621C112.313 12.1467 112.446 11.7376 112.622 11.4042C112.655 11.3414 112.713 11.2334 112.788 11.1341Z" fill="#006633"/>
</svg>
