<svg width="11" height="13" viewBox="0 0 11 13" fill="none" xmlns="http://www.w3.org/2000/svg">
<path d="M1.28125 5.75C0.867036 5.75 0.53125 6.08579 0.53125 6.5C0.53125 6.91421 0.867036 7.25 1.28125 7.25V5.75ZM10.5068 7.03033C10.7997 6.73744 10.7997 6.26256 10.5068 5.96967L5.73383 1.1967C5.44094 0.903806 4.96606 0.903806 4.67317 1.1967C4.38028 1.48959 4.38028 1.96447 4.67317 2.25736L8.91581 6.5L4.67317 10.7426C4.38028 11.0355 4.38028 11.5104 4.67317 11.8033C4.96606 12.0962 5.44094 12.0962 5.73383 11.8033L10.5068 7.03033ZM1.28125 7.25H9.97647V5.75H1.28125V7.25Z" fill="black"/>
</svg>
