<svg width="23" height="14" viewBox="0 0 23 14" fill="none" xmlns="http://www.w3.org/2000/svg">
<path d="M22.878 11.8767C22.8502 11.8172 22.8242 11.7679 22.8001 11.7284C22.401 11.0164 21.6385 10.1425 20.5128 9.10636L20.4891 9.08264L20.4771 9.071L20.4651 9.05908H20.453C19.9422 8.57662 19.6186 8.25222 19.4832 8.08614C19.2353 7.76977 19.1798 7.44953 19.3152 7.12505C19.4109 6.8799 19.7705 6.36216 20.393 5.57114C20.7205 5.15192 20.9798 4.81594 21.1713 4.5628C22.5525 2.74367 23.1514 1.58122 22.9677 1.07499L22.8963 0.956695C22.8484 0.885476 22.7246 0.820322 22.5253 0.760903C22.3255 0.701609 22.0701 0.691803 21.7586 0.731319L18.3099 0.75492C18.254 0.735308 18.1742 0.737136 18.0703 0.760903C17.9665 0.784671 17.9146 0.796597 17.9146 0.796597L17.8546 0.826306L17.8069 0.861999C17.767 0.8856 17.7231 0.927111 17.6751 0.986447C17.6274 1.04557 17.5875 1.11497 17.5557 1.19404C17.1802 2.15102 16.7533 3.04076 16.2742 3.86324C15.9788 4.35367 15.7075 4.77871 15.4597 5.13859C15.2123 5.49834 15.0047 5.7634 14.8372 5.9333C14.6694 6.10338 14.518 6.23962 14.382 6.34255C14.2463 6.44551 14.1426 6.48902 14.0708 6.4731C13.9989 6.45719 13.9312 6.4414 13.867 6.42561C13.7554 6.35439 13.6655 6.25753 13.5978 6.13496C13.5297 6.01238 13.4839 5.8581 13.46 5.67224C13.4362 5.48625 13.4221 5.32628 13.418 5.19177C13.4143 5.05744 13.416 4.86742 13.4241 4.62226C13.4324 4.37699 13.4362 4.21103 13.4362 4.12402C13.4362 3.82343 13.4421 3.49721 13.4539 3.14527C13.466 2.79332 13.4758 2.51447 13.484 2.30904C13.4921 2.1034 13.4959 1.88583 13.4959 1.65647C13.4959 1.4271 13.4818 1.24722 13.4539 1.11667C13.4264 0.98628 13.3842 0.859714 13.3285 0.737011C13.2725 0.614434 13.1906 0.519613 13.083 0.452299C12.9753 0.385068 12.8413 0.331716 12.6819 0.292075C12.2587 0.197213 11.7199 0.145896 11.0651 0.137918C9.58027 0.122129 8.62619 0.217116 8.20306 0.422755C8.03542 0.50964 7.88371 0.628353 7.74806 0.778521C7.60432 0.952581 7.58427 1.04757 7.68804 1.06319C8.16712 1.13429 8.50627 1.30436 8.70588 1.57324L8.77781 1.71572C8.83377 1.81852 8.88963 2.00052 8.94554 2.26146C9.00137 2.52241 9.0374 2.81107 9.05325 3.12727C9.0931 3.70472 9.0931 4.19902 9.05325 4.61022C9.01328 5.02158 8.97553 5.34182 8.9395 5.57118C8.90347 5.80055 8.84962 5.98641 8.77781 6.12872C8.70588 6.27108 8.65802 6.35809 8.63403 6.38967C8.61008 6.42125 8.59012 6.44115 8.57426 6.44896C8.47049 6.48835 8.36257 6.50842 8.25088 6.50842C8.13902 6.50842 8.00337 6.45299 7.84373 6.34222C7.68414 6.23144 7.51851 6.07928 7.34683 5.88548C7.17516 5.69164 6.98155 5.42076 6.76592 5.07281C6.55046 4.72486 6.3269 4.31362 6.09537 3.8391L5.90381 3.49497C5.78407 3.27358 5.62049 2.95122 5.41291 2.52818C5.20521 2.10498 5.02162 1.69561 4.86203 1.30016C4.79823 1.13408 4.70239 1.00764 4.57467 0.920629L4.51474 0.884935C4.47489 0.853356 4.41093 0.819824 4.32318 0.784089C4.23531 0.748396 4.14362 0.7228 4.04774 0.707052L0.766556 0.730654C0.431261 0.730654 0.203761 0.805904 0.0839705 0.956197L0.0360293 1.02729C0.0120797 1.06689 0 1.13013 0 1.21718C0 1.30419 0.0239496 1.41098 0.0718908 1.53742C0.550883 2.65267 1.07178 3.72824 1.63457 4.76429C2.19737 5.80034 2.68643 6.63491 3.10146 7.26724C3.51657 7.90003 3.93969 8.49725 4.37083 9.05862C4.80196 9.62019 5.08735 9.98007 5.22698 10.1382C5.36677 10.2966 5.47658 10.415 5.5564 10.4941L5.85583 10.7787C6.04743 10.9686 6.32878 11.196 6.70002 11.4608C7.07135 11.7259 7.48243 11.9869 7.93349 12.2441C8.38464 12.5009 8.90947 12.7105 9.5083 12.8726C10.107 13.0349 10.6898 13.1 11.2567 13.0686H12.6338C12.9131 13.0447 13.1247 12.9577 13.2686 12.8075L13.3162 12.748C13.3482 12.7008 13.3782 12.6275 13.4059 12.5288C13.4339 12.43 13.4479 12.3211 13.4479 12.2026C13.4397 11.8626 13.4658 11.5561 13.5255 11.2833C13.5852 11.0106 13.6533 10.8049 13.7293 10.6664C13.8054 10.5281 13.8912 10.4113 13.9867 10.3166C14.0824 10.2218 14.1506 10.1643 14.1906 10.1445C14.2304 10.1246 14.2622 10.1111 14.2861 10.103C14.4777 10.0398 14.7032 10.101 14.9629 10.2871C15.2224 10.4729 15.4658 10.7024 15.6935 10.9752C15.921 11.2481 16.1944 11.5544 16.5137 11.8944C16.8332 12.2346 17.1125 12.4874 17.3519 12.6538L17.5913 12.7961C17.7512 12.8911 17.9588 12.9781 18.2143 13.0572C18.4694 13.1362 18.6928 13.156 18.8847 13.1165L21.9502 13.0691C22.2534 13.0691 22.4894 13.0194 22.6567 12.9207C22.8244 12.8218 22.924 12.7129 22.9562 12.5945C22.9882 12.4759 22.9899 12.3413 22.9622 12.1909C22.9338 12.0409 22.9059 11.936 22.878 11.8767Z" fill="white"/>
</svg>
