<svg width="11" height="13" viewBox="0 0 11 13" fill="none" xmlns="http://www.w3.org/2000/svg">
<path d="M1.28076 5.75C0.866548 5.75 0.530762 6.08579 0.530762 6.5C0.530762 6.91421 0.866548 7.25 1.28076 7.25V5.75ZM10.5063 7.03033C10.7992 6.73744 10.7992 6.26256 10.5063 5.96967L5.73334 1.1967C5.44045 0.903806 4.96557 0.903806 4.67268 1.1967C4.37979 1.48959 4.37979 1.96447 4.67268 2.25736L8.91532 6.5L4.67268 10.7426C4.37979 11.0355 4.37979 11.5104 4.67268 11.8033C4.96557 12.0962 5.44045 12.0962 5.73334 11.8033L10.5063 7.03033ZM1.28076 7.25H9.97598V5.75H1.28076V7.25Z" fill="black"/>
</svg>
