<svg width="21" height="11" viewBox="0 0 21 11" fill="none" xmlns="http://www.w3.org/2000/svg">
<path d="M2.32285 2.3646C1.7289 2.72588 0.954703 2.87354 0 2.80799V1.56007C0.784889 1.56007 1.36281 1.46154 1.734 1.26448C2.10532 1.06742 2.40748 0.700618 2.64081 0.164356H3.81802V10.8369H2.32259V2.36474L2.32285 2.3646ZM11.1523 3.0706C11.1523 2.55628 10.9985 2.16202 10.6909 1.88851C10.3835 1.61486 9.94323 1.4781 9.37041 1.4781C8.85067 1.4781 8.43456 1.62038 8.1214 1.90479C7.80865 2.18948 7.65221 2.56153 7.65221 3.02134C7.65221 3.32783 7.72642 3.63405 7.87511 3.94055L6.5388 4.49889C6.28408 4.08296 6.15691 3.57941 6.15691 2.98822C6.15691 2.0795 6.4539 1.35446 7.04784 0.812811C7.64179 0.270753 8.43175 0 9.41828 0C10.4258 0 11.2265 0.270891 11.8204 0.812811C12.4144 1.35446 12.7113 2.07978 12.7113 2.98822C12.7113 3.73245 12.4913 4.42479 12.0511 5.06524C11.6108 5.70555 10.9084 6.35952 9.94323 7.0273C8.82954 7.79374 8.14012 8.4611 7.87511 9.03021C8.12969 8.87703 8.40527 8.80058 8.70224 8.80058C8.925 8.80058 9.15298 8.83315 9.38644 8.89897C9.61964 8.96466 9.8955 9.06319 10.2137 9.19443C10.4045 9.27088 10.5982 9.33946 10.7943 9.39935C10.9906 9.45966 11.1522 9.48961 11.2795 9.48961C11.5127 9.48961 11.709 9.40474 11.8682 9.235C12.0271 9.0654 12.1278 8.8326 12.1702 8.53714L13.427 9.21044C13.3846 9.76878 13.1722 10.2065 12.7906 10.5238C12.4087 10.8414 11.8945 11 11.2476 11C10.9084 11 10.6032 10.9616 10.3329 10.885C10.0624 10.8085 9.76272 10.6935 9.43405 10.5401C9.13708 10.4088 8.88504 10.3129 8.67832 10.2526C8.4716 10.1924 8.24616 10.1623 8.00213 10.1623C7.71599 10.1623 7.52492 10.2087 7.42944 10.3019C7.33411 10.395 7.28102 10.5399 7.27032 10.737V10.8355H5.91824L5.88627 10.3923C5.88627 9.65907 6.17255 8.89815 6.74537 8.1099C7.31819 7.32165 8.12407 6.57204 9.16368 5.86038C9.85296 5.37891 10.3567 4.91358 10.675 4.46494C10.9931 4.01617 11.1523 3.55098 11.1523 3.06923V3.0706ZM14.3181 4.72907H16.9432V1.97076H18.375V4.72907H21V6.10823H18.375V8.86654H16.9432V6.10823H14.3181V4.72907Z" fill="white"/>
</svg>
