<svg width="277" height="57" viewBox="0 0 277 57" fill="none" xmlns="http://www.w3.org/2000/svg">
<path fill-rule="evenodd" clip-rule="evenodd" d="M96.7601 46.4574C96.213 46.4574 95.7689 46.9056 95.7689 47.4596V55.5726H82.2928V2.31017H108.219C111.946 7.63895 114.308 15.5503 114.308 24.3834C114.308 33.2164 111.946 41.1277 108.219 46.4574H96.7601ZM99.9004 24.3834C99.9004 17.2946 99.6195 12.0977 97.0459 12.0977C95.9148 12.0977 95.7689 13.6415 95.7689 16.8609V30.8355C95.7689 34.6396 95.7689 36.4915 96.9001 36.4915C99.4739 36.4915 99.9004 31.4723 99.9004 24.3834ZM271.08 46.4574C273.557 40.4558 275.045 32.7666 275.045 24.3834C275.045 16.0009 273.557 8.31187 271.08 2.31017H244.194C241.717 8.31187 240.23 16.0009 240.23 24.3834C240.23 32.7666 241.717 40.4558 244.194 46.4574H271.08ZM257.637 9.03693C260.211 9.03693 260.638 15.9079 260.638 24.3834C260.638 32.8591 260.211 39.7302 257.637 39.7302C255.063 39.7302 254.637 32.8591 254.637 24.3834C254.637 15.9079 255.063 9.03693 257.637 9.03693ZM220.174 31.1857C220.174 22.6375 219.747 12.0554 217.173 12.0554C214.599 12.0554 214.173 20.2331 214.173 31.1857C214.173 37.3291 214.371 42.8001 214.74 46.4576H200.799C200.131 41.6902 199.766 36.5483 199.766 31.1857C199.766 20.1885 201.3 10.1164 203.845 2.31039H230.502C233.047 10.1161 234.581 20.1883 234.581 31.1857C234.581 36.5483 234.216 41.69 233.547 46.4576H219.623C220.017 42.8361 220.174 39.7334 220.174 31.1857ZM178.609 37.938C179.195 37.938 179.564 38.3796 179.601 38.9459C179.501 41.8793 179.25 44.4037 179.187 46.4574H193.084C193.752 41.69 194.117 36.5481 194.117 31.1855C194.117 20.1883 192.583 10.1161 190.038 2.31017H163.382C160.836 10.1159 159.301 20.1881 159.301 31.1855C159.301 36.5481 159.666 41.6898 160.335 46.4574H174.185C174.099 43.9841 173.819 41.3897 173.819 38.9407C173.819 38.3868 174.263 37.938 174.811 37.938H178.609ZM179.701 28.7162C179.631 19.027 179.085 12.0554 176.71 12.0554C174.331 12.0554 173.786 19.0375 173.717 28.7389C173.724 29.2855 174.166 29.7273 174.708 29.7273H178.709C179.301 29.7273 179.66 29.285 179.701 28.7162ZM55.8976 25.8474L55.8982 25.8384C55.8982 25.2848 56.3423 24.8357 56.8902 24.8357H56.8924L76.3002 24.8394C76.3011 24.6875 76.3018 24.5356 76.3018 24.3837C76.3018 16.0011 74.8136 8.31209 72.3363 2.31039H45.451C42.9738 8.31209 41.4855 16.0011 41.4855 24.3837C41.4855 32.7668 42.9738 40.456 45.451 46.4576H72.3363C74.3412 41.5997 75.6981 35.6378 76.1429 29.0969H61.8337C61.6479 35.2665 60.9682 39.7304 58.8936 39.7304C56.4701 39.7304 55.9506 33.6362 55.8976 25.8474ZM61.6822 16.558C61.3623 12.0552 60.5995 9.03693 58.8936 9.03693C57.1936 9.03693 56.4302 12.0369 56.108 16.517C56.1138 17.065 56.5558 17.5081 57.0992 17.5081H60.6925C61.2221 17.5081 61.6554 17.0869 61.6822 16.558ZM32.2618 2.31039C34.2666 7.16738 35.6235 13.1302 36.0676 19.671H21.7586C21.5728 13.5014 20.8938 9.03693 18.8192 9.03693C16.2454 9.03693 15.818 15.9079 15.818 24.3834C15.818 32.8591 16.2454 39.7302 18.8192 39.7302C20.8938 39.7302 21.5729 35.2664 21.7586 29.0968H36.0676C35.6235 35.6376 34.2666 41.5995 32.2618 46.4574H5.3765C2.89942 40.4559 1.41115 32.7667 1.41115 24.3834C1.41115 16.001 2.89942 8.31187 5.3765 2.31017L32.2618 2.31039ZM119.533 38.3435C120.08 38.3435 120.524 37.8944 120.524 37.3404C120.524 34.1943 119.886 30.5524 119.886 27.0828C119.886 17.4985 121.577 8.78518 124.336 2.31028H148.278C151.038 8.78518 152.729 20.515 152.729 27.0828C152.729 33.6504 152.497 34.0647 152.064 37.3061C152.185 37.8703 152.349 38.3435 153.06 38.3435H155.332C154.999 41.1609 154.567 43.874 154.046 46.4573H118.569C118.048 43.874 117.615 41.1609 117.282 38.3435H119.533ZM139.138 27.0828C139.138 26.3701 139.133 25.6305 139.12 24.8789C139.023 18.8787 138.465 12.1104 136.307 12.1104C133.879 12.1104 133.476 18.2527 133.476 27.0828C133.476 30.9502 133.554 34.496 133.844 37.2607C134.061 37.6025 133.913 38.3435 134.862 38.3435H137.78C138.28 38.3435 138.629 37.9936 138.745 37.4889C139.056 34.6919 139.138 33.4849 139.138 27.0828ZM97.1801 47.8844V56.9998H80.8816V0.883409H108.949L109.372 1.48737C111.496 4.52466 113.028 8.06284 114.055 11.7683C115.205 15.9202 115.719 20.2819 115.719 24.3834C115.719 28.4853 115.205 32.8468 114.055 36.9985C113.029 40.7042 111.496 44.2427 109.372 47.2802L108.949 47.8844H97.1801ZM96.6212 56.4344V47.3188H108.662L108.916 46.9556C111.001 43.9728 112.508 40.4929 113.518 36.8459C114.652 32.7492 115.161 28.4398 115.161 24.3832C115.161 20.3269 114.652 16.0175 113.518 11.9203C112.508 8.27353 111.001 4.79411 108.916 1.81145L108.662 1.44838H81.441V56.4341L96.6212 56.4344ZM243.255 47.8844L242.892 47.0064C241.513 43.6652 240.522 40.0741 239.863 36.4112C239.142 32.405 238.818 28.3189 238.818 24.3837C238.818 20.4484 239.142 16.3625 239.863 12.3566C240.522 8.69362 241.513 5.10266 242.892 1.7616L243.255 0.883627H272.019L272.382 1.7616C273.761 5.1031 274.752 8.69438 275.412 12.3578C276.132 16.3631 276.456 20.4486 276.456 24.3837C276.456 28.3189 276.133 32.4046 275.412 36.4102C274.752 40.0736 273.761 43.665 272.382 47.0064L272.019 47.8844H243.255ZM243.626 47.3191H271.648L271.866 46.79C273.231 43.4831 274.212 39.9313 274.864 36.3106C275.577 32.3478 275.897 28.2948 275.897 24.3834C275.897 20.4723 275.577 16.4198 274.864 12.4568C274.212 8.83633 273.231 5.28501 271.866 1.97762L271.648 1.4486H243.626L243.408 1.97762C242.043 5.28447 241.062 8.83546 240.411 12.4558C239.697 16.4191 239.377 20.4721 239.377 24.3834C239.377 28.295 239.697 32.3481 240.411 36.3118C241.062 39.9321 242.043 43.4833 243.408 46.79L243.626 47.3191ZM216.691 13.3031C216.785 13.1551 216.892 13.0241 216.998 12.9648L217.165 12.8714L217.312 12.9968C217.464 13.1261 217.609 13.3816 217.735 13.6671C217.921 14.0907 218.078 14.6003 218.134 14.8022C218.331 15.5124 218.479 16.2637 218.596 17.021C218.713 17.7755 218.798 18.5314 218.871 19.2568C219.069 21.2204 219.181 23.2181 219.244 25.2185C219.308 27.2418 219.322 29.2328 219.322 31.1855V31.2815C219.322 36.3108 219.322 41.341 218.776 46.3619L218.672 47.319H234.288L234.392 46.5792C234.743 44.073 235.002 41.5484 235.173 39.0169C235.349 36.4142 235.433 33.7993 235.433 31.1854C235.433 26.1198 235.117 20.8389 234.382 15.6392C233.721 10.9725 232.723 6.36793 231.311 2.04018L231.118 1.44849H203.229L203.035 2.04018C201.624 6.36793 200.626 10.9725 199.965 15.6392C199.23 20.8389 198.913 26.1198 198.913 31.1854C198.913 33.7989 198.998 36.4133 199.174 39.0154C199.345 41.5474 199.603 44.0724 199.955 46.5789L200.058 47.3187H215.685L215.589 46.3695C215.477 45.2614 215.393 44.1524 215.326 43.0459C215.261 41.9473 215.212 40.8342 215.171 39.7205C215.118 38.3036 215.082 36.8805 215.059 35.453C215.035 33.9832 215.025 32.5639 215.025 31.1851C215.025 29.9759 215.03 28.7289 215.046 27.3965C215.062 26.1294 215.089 24.865 215.132 23.6067C215.167 22.6061 215.21 21.6026 215.275 20.6133C215.341 19.6164 215.429 18.6163 215.554 17.6214C215.628 17.0374 215.72 16.3737 215.853 15.7207C215.987 15.0588 216.163 14.4047 216.402 13.8472C216.431 13.7776 216.56 13.5097 216.691 13.3031ZM217.12 13.6739C217.02 13.8412 216.934 14.0208 216.912 14.0705C216.691 14.5862 216.526 15.2037 216.398 15.8337C216.269 16.4726 216.178 17.1217 216.107 17.6926C215.985 18.6638 215.897 19.6536 215.832 20.6491C215.766 21.6521 215.723 22.6455 215.689 23.6259C215.645 24.8883 215.618 26.1474 215.603 27.4035C215.588 28.5948 215.584 29.8726 215.584 31.1855C215.584 32.6477 215.593 34.0722 215.616 35.4445C215.638 36.8594 215.675 38.2782 215.727 39.701C215.767 40.7942 215.816 41.898 215.883 43.0128C215.949 44.1197 216.033 45.2222 216.143 46.3123L216.302 47.8844H199.574L199.402 46.6567C199.049 44.1353 198.789 41.5968 198.617 39.0533C198.44 36.4286 198.355 33.8018 198.355 31.1855C198.355 26.0994 198.673 20.7921 199.413 15.5599C200.078 10.8598 201.084 6.22228 202.505 1.86369L202.825 0.883409H231.522L231.842 1.86369C233.263 6.22228 234.269 10.8598 234.934 15.5599C235.674 20.7919 235.992 26.0994 235.992 31.1855C235.992 33.802 235.907 36.4291 235.729 39.0545C235.557 41.5976 235.298 44.1356 234.944 46.6569L234.772 47.8844H218.049L218.221 46.3024C218.763 41.3231 218.763 36.3017 218.763 31.2815V31.1855C218.763 29.2025 218.749 27.2005 218.688 25.2361C218.625 23.2491 218.513 21.2641 218.317 19.3116C218.245 18.5914 218.16 17.8436 218.046 17.1067C217.932 16.3724 217.788 15.643 217.597 14.9519C217.545 14.7632 217.399 14.2887 217.226 13.8963C217.191 13.816 217.155 13.7409 217.12 13.6739ZM175.232 39.3647C175.248 40.6834 175.336 42.0181 175.425 43.3522C175.491 44.3628 175.559 45.3733 175.595 46.407L175.646 47.8844H159.111L158.939 46.6569C158.585 44.1358 158.325 41.5977 158.153 39.0547C157.975 36.4293 157.89 33.8021 157.89 31.1855C157.89 26.0994 158.208 20.7918 158.949 15.5596C159.614 10.8595 160.62 6.22207 162.041 1.86369L162.361 0.883409H191.058L191.377 1.86369C192.799 6.22228 193.804 10.8598 194.469 15.5599C195.21 20.7919 195.528 26.0994 195.528 31.1855C195.528 33.8016 195.443 36.4283 195.265 39.0533C195.093 41.5968 194.834 44.1353 194.48 46.6567L194.308 47.8844H177.732L177.777 46.4138C177.817 45.1115 177.902 43.8341 177.987 42.5561C178.058 41.4867 178.129 40.4165 178.174 39.3645L175.232 39.3647ZM174.868 43.3898C174.773 41.9609 174.679 40.5317 174.672 39.0834L174.671 38.7994H178.753L178.742 39.092C178.698 40.2777 178.621 41.4361 178.544 42.5938C178.459 43.8811 178.373 45.168 178.334 46.4297L178.307 47.3191H193.824L193.928 46.5792C194.279 44.0726 194.537 41.5477 194.709 39.0158C194.885 36.4135 194.969 33.7992 194.969 31.1857C194.969 26.1202 194.653 20.8392 193.917 15.6395C193.257 10.9728 192.258 6.36825 190.847 2.0405L190.654 1.44881H162.765L162.572 2.0405C161.16 6.36803 160.162 10.9724 159.501 15.6392C158.765 20.8392 158.449 26.1204 158.449 31.1859C158.449 33.7999 158.533 36.4149 158.71 39.0176C158.881 41.5491 159.139 44.0738 159.491 46.5798L159.595 47.3195H175.069L175.038 46.4273C175.003 45.431 174.935 44.4099 174.868 43.3898ZM57.311 26.2613C57.3179 27.0391 57.3298 27.8196 57.3501 28.6029C57.3724 29.4693 57.406 30.3419 57.4556 31.2216C57.4957 31.9301 57.5448 32.6455 57.614 33.3525C57.6829 34.0558 57.7731 34.7616 57.896 35.4604C57.9661 35.8596 58.057 36.3186 58.1777 36.7578C58.2971 37.1923 58.447 37.6145 58.6365 37.9512C58.6731 38.0162 58.7364 38.124 58.8105 38.212C58.8525 38.2619 58.8886 38.3034 58.8938 38.3034C58.9546 38.3034 59.0617 38.1327 59.1777 37.9035C59.4444 37.3772 59.65 36.6074 59.7015 36.3914C59.823 35.8849 59.9184 35.3572 59.9962 34.8229C60.0753 34.2799 60.1347 33.7456 60.1842 33.2251C60.2494 32.539 60.2991 31.8436 60.3375 31.1434C60.3764 30.4378 60.4038 29.7422 60.4245 29.0543L60.4662 27.6699H77.6542L77.5505 29.1941C77.3381 32.3185 76.9101 35.5057 76.2238 38.6322C75.5916 41.5114 74.7408 44.3351 73.6387 47.0062L73.2762 47.8844H44.5118L44.1494 47.0064C42.7701 43.6651 41.7787 40.0738 41.1193 36.4104C40.3983 32.4047 40.0746 28.3189 40.0746 24.3838C40.0746 20.4487 40.3983 16.363 41.1193 12.3575C41.7789 8.69427 42.7701 5.10277 44.1494 1.7616L44.5118 0.883735H73.2762L73.6387 1.7616C75.018 5.10277 76.0093 8.69427 76.6687 12.3575C77.3895 16.363 77.7134 20.4487 77.7134 24.3838L77.7045 26.2655L57.311 26.2613ZM56.7932 28.6162C56.7705 27.7412 56.7585 26.8615 56.7521 25.9809L56.7498 25.6982L77.1497 25.7021C77.1517 25.2626 77.1538 24.823 77.1538 24.3834C77.1538 20.4721 76.8334 16.4196 76.1203 12.4565C75.4684 8.83601 74.4879 5.28447 73.1229 1.97762L72.9045 1.4486H44.8829L44.6644 1.97762C43.2994 5.28447 42.3186 8.83622 41.667 12.4565C40.9538 16.4196 40.6334 20.4721 40.6334 24.3834C40.6334 28.2948 40.9536 32.3478 41.667 36.311C42.3186 39.9315 43.2994 43.4831 44.6644 46.79L44.8829 47.3191H72.9047L73.1231 46.79C74.2143 44.1459 75.0557 41.3542 75.6799 38.5106C76.3589 35.4181 76.7825 32.2587 76.9934 29.1566L77.0562 28.2352H61.0061L60.9809 29.0698C60.9596 29.7783 60.932 30.4823 60.894 31.1742C60.8557 31.872 60.8053 32.5736 60.7385 33.278C60.6866 33.8231 60.6261 34.3713 60.5485 34.9046C60.4695 35.4461 60.3709 35.989 60.2427 36.5238C60.1874 36.755 59.9664 37.581 59.6732 38.1596C59.4674 38.5658 59.208 38.8686 58.8936 38.8686C58.6906 38.8686 58.5189 38.7367 58.3844 38.5762C58.2818 38.454 58.199 38.3133 58.1515 38.2291C57.9372 37.8484 57.7709 37.3828 57.6406 36.9081C57.5115 36.4377 57.4175 35.9647 57.3458 35.5575C57.2225 34.8567 57.1307 34.1354 57.0596 33.4077C56.9886 32.6842 56.9388 31.9628 56.8987 31.2527C56.8857 31.0224 56.8738 30.7913 56.8629 30.5596C56.8329 29.9166 56.8102 29.2679 56.7932 28.6162ZM33.5638 1.76138C34.6662 4.43223 35.5169 7.25633 36.149 10.1356C36.8352 13.2622 37.263 16.4495 37.4753 19.5738L37.5786 21.098H20.3909L20.3493 19.7137C20.3286 19.0258 20.3012 18.3302 20.2623 17.6244C20.2239 16.9244 20.1742 16.2288 20.1089 15.5428C20.0597 15.0222 20.0003 14.488 19.9212 13.945C19.8434 13.4103 19.748 12.8827 19.6268 12.3762C19.575 12.1606 19.3696 11.3902 19.1029 10.8637C18.9868 10.6345 18.8797 10.4639 18.8192 10.4639C18.8081 10.4639 18.7606 10.5207 18.7082 10.5887C18.6234 10.6986 18.5519 10.8303 18.514 10.9039C18.3124 11.2932 18.1561 11.7779 18.0327 12.2761C17.9062 12.7875 17.8161 13.3043 17.7469 13.7513C17.6291 14.5155 17.5431 15.304 17.4776 16.1013C17.4115 16.9065 17.368 17.6972 17.3342 18.4727C17.291 19.4614 17.2645 20.4459 17.2488 21.4258C17.2341 22.359 17.2295 23.3569 17.2295 24.3834C17.2295 25.41 17.2341 26.4079 17.2488 27.3411C17.2643 28.321 17.2909 29.3055 17.3342 30.2942C17.3679 31.0695 17.4115 31.8603 17.4776 32.6656C17.5429 33.4632 17.6291 34.2514 17.7469 35.0156C17.8158 35.4628 17.9061 35.9792 18.0327 36.4908C18.156 36.989 18.3125 37.4737 18.514 37.863C18.5519 37.9366 18.6236 38.0685 18.7082 38.1782C18.7606 38.2461 18.8081 38.303 18.8192 38.303C18.8799 38.303 18.9868 38.1324 19.1029 37.9034C19.3696 37.3769 19.575 36.607 19.6268 36.3912C19.7481 35.8849 19.8434 35.3569 19.9212 34.8226C20.0003 34.2794 20.0595 33.7453 20.1089 33.2249C20.1742 32.5386 20.2239 31.8432 20.2623 31.1432C20.3012 30.4376 20.3286 29.742 20.3493 29.054L20.3909 27.6697H37.5786L37.4753 29.1938C37.2632 32.3181 36.8354 35.5052 36.1492 38.6313C35.5171 41.5108 34.6665 44.3351 33.564 47.0062L33.2016 47.8844H4.43699L4.07448 47.0064C2.69555 43.6648 1.70416 40.0735 1.04467 36.4102C0.323733 32.4047 0 28.3187 0 24.3834C0 20.4484 0.323733 16.3628 1.04467 12.3574C1.70416 8.69395 2.69555 5.10266 4.07448 1.76138L4.43699 0.883409H33.2014L33.5638 1.76138ZM35.6052 10.257C34.9811 7.41337 34.1399 4.62164 33.0485 1.97762L32.83 1.4486H4.8082L4.58973 1.97762C3.22476 5.2849 2.24411 8.83622 1.59256 12.4567C0.879148 16.4198 0.55896 20.4723 0.55896 24.3834C0.55896 28.2948 0.879148 32.3478 1.59256 36.3108C2.24422 39.9313 3.22476 43.4827 4.58973 46.79L4.8082 47.3191H32.8302L33.0487 46.79C34.1399 44.1456 34.9812 41.3535 35.6055 38.5098C36.2842 35.4176 36.7078 32.2584 36.9184 29.1565L36.981 28.2353H20.9311L20.9059 29.0699C20.8845 29.7785 20.857 30.4826 20.8189 31.1744C20.7806 31.8722 20.7302 32.5737 20.6634 33.2784C20.6116 33.8234 20.5512 34.3719 20.4737 34.9047C20.395 35.4462 20.2964 35.9893 20.1681 36.5239C20.1128 36.7549 19.8919 37.5809 19.5987 38.1597C19.3929 38.5659 19.134 38.8686 18.8194 38.8686C18.5999 38.8686 18.4138 38.7119 18.2695 38.5251C18.1576 38.38 18.0679 38.2152 18.0206 38.1238C17.7944 37.6865 17.6234 37.161 17.4914 36.6278C17.3626 36.1077 17.269 35.5701 17.1966 35.1017C17.0737 34.3043 16.9858 33.5054 16.921 32.7119C16.8565 31.9263 16.8125 31.1215 16.7774 30.3186C16.7345 29.3361 16.708 28.3451 16.6919 27.3503C16.6756 26.3085 16.6702 25.3303 16.6702 24.3837C16.6702 23.4367 16.6756 22.4586 16.6919 21.417C16.7078 20.4219 16.7343 19.4311 16.7774 18.4487C16.8125 17.6457 16.8565 16.841 16.921 16.0553C16.9858 15.2618 17.0737 14.4629 17.1966 13.6655C17.2689 13.1971 17.3626 12.6595 17.4914 12.1394C17.6234 11.6061 17.7944 11.0808 18.0206 10.6437C18.0678 10.5521 18.1576 10.3873 18.2695 10.2424C18.4138 10.0554 18.5999 9.89883 18.8194 9.89883C19.1338 9.89883 19.393 10.2016 19.5987 10.6078C19.8921 11.1867 20.1128 12.0129 20.1681 12.2439C20.2964 12.7784 20.395 13.3215 20.4737 13.8632C20.5512 14.396 20.6118 14.9446 20.6634 15.4898C20.7304 16.1942 20.7806 16.896 20.8189 17.5936C20.857 18.2856 20.8845 18.9897 20.9059 19.6982L20.9311 20.5329H36.981L36.9184 19.6117C36.7078 16.5096 36.284 13.3496 35.6052 10.257ZM119.11 36.9163C119.088 35.5636 118.961 34.1943 118.836 32.8414L118.801 32.4641C118.718 31.5596 118.636 30.6546 118.576 29.7828C118.515 28.88 118.475 27.9788 118.475 27.0825C118.475 22.6713 118.83 18.0049 119.652 13.4416C120.385 9.37068 121.488 5.38688 123.04 1.74585L123.408 0.883301H149.206L149.574 1.74585C151.126 5.38667 152.229 9.37046 152.962 13.4415C153.784 18.0045 154.14 22.671 154.14 27.0826C154.14 28.789 154.087 30.5034 153.978 32.2201C153.879 33.7869 153.732 35.3539 153.536 36.9164H156.921L156.732 38.5123C156.571 39.8813 156.382 41.2581 156.163 42.6405C155.946 44.0134 155.702 45.3817 155.427 46.7425L155.196 47.8843H117.417L117.187 46.7425C116.912 45.3815 116.667 44.0134 116.45 42.6405C116.232 41.2581 116.042 39.8813 115.88 38.5123L115.692 36.9164L119.11 36.9163ZM119.39 32.7907C119.525 34.2497 119.662 35.7274 119.671 37.1978L119.672 37.4817H116.321L116.435 38.4462C116.599 39.8284 116.786 41.1982 117 42.5523C117.216 43.9161 117.46 45.2763 117.733 46.6303L117.872 47.3193H154.742L154.881 46.6303C155.155 45.2766 155.398 43.9163 155.613 42.5523C155.827 41.1983 156.015 39.8284 156.178 38.4462L156.292 37.4817H152.902L152.943 37.1627C153.157 35.5139 153.316 33.8526 153.421 32.1848C153.529 30.4921 153.581 28.7893 153.581 27.0825C153.581 22.6945 153.228 18.061 152.414 13.5407C151.689 9.51523 150.597 5.5739 149.061 1.96882L148.839 1.44871H123.775L123.553 1.96904C122.017 5.57423 120.925 9.51588 120.2 13.5412C119.386 18.0614 119.034 22.6948 119.034 27.0829C119.034 27.9758 119.074 28.8628 119.134 29.7456C119.196 30.6593 119.275 31.538 119.356 32.4135L119.39 32.7907ZM97.2927 34.801C97.428 34.6188 97.5453 34.3624 97.6436 34.0933C97.8239 33.5997 97.9312 33.0744 97.9834 32.8135C98.1001 32.2292 98.1844 31.6242 98.2475 31.015C98.3104 30.4059 98.3524 29.7911 98.3855 29.1873C98.4294 28.3817 98.4558 27.5827 98.4709 26.7895C98.4851 26.0319 98.4895 25.2179 98.4895 24.3834C98.4895 23.532 98.4869 22.703 98.4763 21.957C98.4648 21.1547 98.4441 20.3483 98.4075 19.5371C98.38 18.9191 98.3445 18.2923 98.2894 17.6745C98.2343 17.0546 98.1589 16.4375 98.0509 15.836C98.005 15.5804 97.9011 15.0082 97.7201 14.4825C97.6122 14.1686 97.481 13.8734 97.3298 13.6956C97.1778 14.5387 97.1787 16.2548 97.1791 16.7961C97.2616 21.5262 97.1965 26.3602 97.1781 31.0987C97.1738 31.8977 97.1635 33.793 97.2927 34.801ZM98.1675 34.2878C97.958 34.8619 97.6494 35.4032 97.2011 35.5732L96.9179 35.6805L96.835 35.3867C96.6024 34.5601 96.6158 32.0563 96.6212 31.0964C96.6397 26.3311 96.621 21.562 96.621 16.796C96.6215 16.1421 96.6201 13.8389 96.9009 13.1486L96.9914 12.926L97.2217 12.9809C97.7072 13.0969 98.0318 13.6741 98.2458 14.2971C98.4397 14.8605 98.5499 15.4662 98.5984 15.7367C98.7089 16.3543 98.7867 16.9878 98.8432 17.6236C98.9002 18.2605 98.936 18.8935 98.9637 19.5129C98.9999 20.3179 99.0207 21.1322 99.0325 21.9503C99.045 22.8248 99.048 23.6168 99.048 24.3833C99.048 25.1537 99.0433 25.9485 99.027 26.7983C99.0116 27.6124 98.985 28.4213 98.9417 29.2183C98.9084 29.8278 98.8656 30.4504 98.8014 31.0725C98.737 31.6945 98.6502 32.3164 98.5288 32.9241C98.473 33.2029 98.3588 33.7637 98.1675 34.2878ZM257.637 10.4635C257.626 10.4635 257.578 10.5204 257.526 10.5884C257.441 10.6981 257.37 10.8298 257.332 10.9035C257.13 11.2929 256.974 11.7776 256.85 12.2758C256.724 12.7872 256.634 13.3039 256.565 13.751C256.447 14.5154 256.361 15.3036 256.296 16.1009C256.23 16.9062 256.186 17.6969 256.152 18.4723C256.109 19.4613 256.083 20.4456 256.067 21.4257C256.053 22.3589 256.048 23.3568 256.048 24.3833C256.048 25.4099 256.053 26.4078 256.067 27.341C256.083 28.3209 256.109 29.3052 256.152 30.2944C256.186 31.0696 256.23 31.8605 256.296 32.6657C256.361 33.4631 256.447 34.2515 256.565 35.0157C256.634 35.4627 256.724 35.9796 256.85 36.4909C256.974 36.9891 257.13 37.4738 257.332 37.8631C257.37 37.9367 257.441 38.0686 257.526 38.1783C257.578 38.2462 257.626 38.3031 257.637 38.3031C257.648 38.3031 257.696 38.2463 257.748 38.1783C257.833 38.0686 257.904 37.9367 257.942 37.8631C258.144 37.4738 258.301 36.9891 258.424 36.4909C258.55 35.9796 258.64 35.463 258.71 35.0157C258.828 34.2515 258.914 33.4631 258.979 32.6657C259.045 31.8605 259.088 31.0696 259.122 30.2944C259.165 29.3056 259.192 28.3211 259.208 27.3412C259.222 26.408 259.227 25.4097 259.227 24.3836C259.227 23.3574 259.222 22.3589 259.208 21.4259C259.192 20.446 259.165 19.4615 259.122 18.4728C259.088 17.6975 259.045 16.9067 258.979 16.1014C258.914 15.3038 258.827 14.5156 258.71 13.7514C258.641 13.3042 258.55 12.7875 258.424 12.2762C258.3 11.778 258.144 11.2933 257.942 10.904C257.905 10.8305 257.833 10.6985 257.748 10.5888C257.696 10.5209 257.648 10.4635 257.637 10.4635ZM257.087 10.2418C257.231 10.0549 257.418 9.89828 257.637 9.89828C257.856 9.89828 258.043 10.0549 258.187 10.2418C258.299 10.3869 258.389 10.5517 258.436 10.6431C258.662 11.0804 258.833 11.6059 258.965 12.1388C259.094 12.6591 259.187 13.1967 259.26 13.6651C259.383 14.4624 259.47 15.2612 259.535 16.0547C259.6 16.8404 259.644 17.6453 259.679 18.4482C259.722 19.4307 259.748 20.4216 259.764 21.4165C259.781 22.4583 259.786 23.436 259.786 24.3831C259.786 25.3305 259.781 26.3082 259.764 27.3497C259.749 28.3447 259.722 29.3356 259.679 30.318C259.644 31.121 259.6 31.9257 259.535 32.7115C259.47 33.5051 259.383 34.3038 259.26 35.1012C259.187 35.5696 259.094 36.1072 258.965 36.6274C258.833 37.1606 258.662 37.6859 258.436 38.1232C258.388 38.2148 258.299 38.3793 258.187 38.5245C258.043 38.7115 257.856 38.8681 257.637 38.8681C257.418 38.8681 257.231 38.7115 257.087 38.5245C256.975 38.3798 256.886 38.2149 256.838 38.1235C256.612 37.6863 256.441 37.1608 256.309 36.6276C256.181 36.1076 256.087 35.5698 256.015 35.1014C255.892 34.3041 255.804 33.5051 255.739 32.7117C255.675 31.9262 255.631 31.1212 255.596 30.3182C255.553 29.3356 255.527 28.3447 255.511 27.3497C255.494 26.308 255.489 25.3298 255.489 24.3831C255.489 23.4362 255.494 22.4581 255.511 21.4165C255.527 20.4214 255.553 19.4305 255.596 18.448C255.631 17.6451 255.675 16.84 255.739 16.0545C255.804 15.2611 255.892 14.4621 256.015 13.6648C256.087 13.1967 256.181 12.6588 256.309 12.1386C256.441 11.6054 256.612 11.0801 256.838 10.6429C256.886 10.5514 256.975 10.3867 257.087 10.2418ZM178.288 28.2997C178.279 27.3145 178.266 26.3264 178.243 25.336C178.219 24.2615 178.183 23.1811 178.13 22.0944C178.089 21.2511 178.038 20.3927 177.965 19.5191C177.894 18.6623 177.801 17.8074 177.675 16.9652C177.603 16.482 177.511 15.9292 177.385 15.392C177.261 14.8614 177.104 14.3428 176.9 13.9178C176.88 13.8748 176.797 13.7197 176.709 13.5891C176.621 13.7203 176.539 13.876 176.518 13.9194C176.313 14.3452 176.156 14.8645 176.032 15.3962C175.907 15.9342 175.815 16.4878 175.742 16.9717C175.616 17.8154 175.524 18.6714 175.452 19.5294C175.38 20.4042 175.329 21.2637 175.288 22.1081C175.235 23.1926 175.2 24.2707 175.175 25.3431C175.152 26.3313 175.139 27.3167 175.13 28.2998L178.288 28.2997ZM178.8 25.3253C178.825 26.4075 178.839 27.4943 178.847 28.5812L178.849 28.8652H174.569L174.572 28.5812C174.58 27.4964 174.594 26.412 174.618 25.3321C174.643 24.2413 174.679 23.1561 174.731 22.0815C174.774 21.2094 174.825 20.3358 174.896 19.4828C174.968 18.6125 175.062 17.744 175.19 16.8877C175.264 16.3949 175.358 15.8287 175.489 15.2682C175.621 14.7014 175.791 14.1425 176.016 13.6743C176.045 13.6128 176.178 13.3641 176.308 13.189C176.423 13.0334 176.56 12.9167 176.71 12.9167C176.859 12.9167 176.996 13.0332 177.111 13.1885C177.24 13.3636 177.373 13.6115 177.403 13.6727C177.627 14.1401 177.797 14.6983 177.929 15.2641C178.06 15.8235 178.154 16.3888 178.227 16.8811C178.355 17.736 178.45 18.6037 178.522 19.4728C178.593 20.3248 178.644 21.197 178.687 22.068C178.739 23.1447 178.775 24.2323 178.8 25.3253ZM176.712 13.4909L176.723 13.4826L176.696 13.4828C176.7 13.4864 176.706 13.4928 176.712 13.4909ZM176.712 13.4909C176.723 13.4867 176.729 13.4838 176.723 13.4826L176.712 13.4909ZM176.696 13.4828C176.691 13.484 176.696 13.4865 176.705 13.4901L176.696 13.4828ZM60.2316 16.0809C60.1767 15.3881 60.1052 14.6481 59.999 13.9197C59.8776 13.0902 59.7111 12.2769 59.4723 11.5683C59.4203 11.4142 59.2584 10.9707 59.0644 10.672C58.9866 10.5524 58.9198 10.4635 58.8938 10.4635C58.8682 10.4635 58.8024 10.551 58.7254 10.6694C58.5322 10.9658 58.3707 11.405 58.3191 11.558C58.0788 12.2681 57.9114 13.0846 57.7897 13.9161C57.6828 14.6467 57.611 15.3883 57.5559 16.0812L60.2316 16.0809ZM60.5513 13.8379C60.6757 14.6891 60.7531 15.5536 60.8117 16.3426L60.8342 16.6461H56.953L56.9757 16.3426C57.0346 15.5542 57.1121 14.6877 57.237 13.8341C57.3628 12.9735 57.5375 12.1242 57.7907 11.3769C57.8486 11.2057 58.0307 10.7119 58.2602 10.3602C58.4329 10.0951 58.6453 9.89828 58.8936 9.89828C59.1433 9.89828 59.3559 10.0961 59.5294 10.3627C59.76 10.7177 59.9427 11.2152 60.0005 11.3871C60.252 12.1331 60.4258 12.9798 60.5513 13.8379ZM136.237 13.6326L136.236 13.6341C136.171 13.72 136.115 13.8229 136.083 13.8829C135.896 14.2356 135.751 14.6821 135.637 15.1414C135.52 15.6155 135.437 16.0946 135.375 16.5031C135.262 17.243 135.18 18.0072 135.119 18.7792C135.058 19.5603 135.018 20.3265 134.986 21.077C134.945 22.0813 134.92 23.0811 134.905 24.0771C134.892 25.0193 134.888 26.037 134.888 27.0825C134.888 28.7273 134.891 30.4006 134.935 32.0196C134.979 33.658 135.064 35.296 135.226 36.9008L135.231 36.9164H137.388C137.442 36.4076 137.493 35.8962 137.535 35.375C137.585 34.7683 137.625 34.1701 137.649 33.5794C137.729 31.6083 137.728 29.6224 137.728 27.652L137.728 27.0825C137.726 25.5636 137.712 24.0247 137.652 22.514C137.593 20.9916 137.488 19.468 137.31 17.9726C137.242 17.4091 137.163 16.8223 137.058 16.2527C136.954 15.6817 136.823 15.1155 136.651 14.5861C136.604 14.4423 136.475 14.0846 136.328 13.797C136.297 13.7363 136.266 13.68 136.237 13.6326ZM135.793 13.292C135.909 13.1395 136.058 13.005 136.239 12.9771L136.342 12.9611L136.432 13.0202C136.573 13.113 136.708 13.3125 136.823 13.5383C136.987 13.8584 137.13 14.253 137.182 14.4114C137.36 14.962 137.497 15.5533 137.606 16.1506C137.716 16.7493 137.797 17.343 137.864 17.9063C138.044 19.4066 138.149 20.9463 138.209 22.4919C138.27 24.0488 138.285 25.5841 138.285 27.0825L138.284 27.652C138.285 29.6333 138.286 31.63 138.205 33.6013C138.18 34.2266 138.141 34.8298 138.092 35.4214C138.043 36.0127 137.983 36.6155 137.915 37.2298L137.888 37.4816H134.809L134.738 37.2208C134.722 37.1639 134.707 37.1074 134.688 37.0533L134.677 37.0219L134.674 36.9895C134.51 35.364 134.423 33.6997 134.378 32.0331C134.332 30.3368 134.329 28.691 134.329 27.0829C134.329 26.1241 134.333 25.1345 134.348 24.0707C134.363 23.0601 134.388 22.0537 134.43 21.0552C134.462 20.2778 134.502 19.4968 134.562 18.7353C134.623 17.9646 134.706 17.1894 134.824 16.4173C134.89 15.9882 134.976 15.488 135.096 15.0045C135.219 14.5063 135.379 14.0158 135.592 13.6159C135.632 13.5406 135.703 13.4112 135.793 13.292Z" fill="#CFCFCF"/>
</svg>
