<svg width="20" height="20" viewBox="0 0 20 20" fill="none" xmlns="http://www.w3.org/2000/svg">
<path d="M9.67736 0.00326893C4.367 0.17156 0.101124 4.47937 0 9.80642H3.74079C7.01947 9.80642 9.67736 7.14852 9.67736 3.86984V0.00326893Z" fill="white"/>
<path d="M9.67736 19.9967C4.40995 19.8298 0.170197 15.5901 0.00326894 10.3226H3.74079C7.01947 10.3226 9.67736 12.9805 9.67736 16.2592V19.9967Z" fill="white"/>
<path d="M19.9967 10.3226C19.8285 15.633 15.5206 19.8989 10.1936 20V16.2592C10.1936 12.9805 12.8515 10.3226 16.1302 10.3226H19.9967Z" fill="white"/>
<path d="M10.1936 0C15.5637 0.10194 19.8981 4.43628 20 9.80642H16.1302C12.8515 9.80642 10.1936 7.14852 10.1936 3.86984V0Z" fill="white"/>
</svg>
