<svg width="230" height="48" viewBox="0 0 230 48" fill="none" xmlns="http://www.w3.org/2000/svg">
<path fill-rule="evenodd" clip-rule="evenodd" d="M80.4592 38.7904C80.0061 38.7904 79.6382 39.1642 79.6382 39.6262V46.3915H68.4769V1.97642H89.9503C93.037 6.42004 94.993 13.0172 94.993 20.3831C94.993 27.7489 93.037 34.3461 89.9503 38.7904H80.4592ZM83.0601 20.3831C83.0601 14.4718 82.8275 10.1381 80.6959 10.1381C79.7591 10.1381 79.6382 11.4255 79.6382 14.1102V25.7635C79.6382 28.9357 79.6382 30.48 80.5752 30.48C82.7068 30.48 83.0601 26.2945 83.0601 20.3831ZM224.837 38.7904C226.889 33.7857 228.121 27.3738 228.121 20.3831C228.121 13.393 226.889 6.98119 224.837 1.97642H202.57C200.518 6.98119 199.286 13.393 199.286 20.3831C199.286 27.3738 200.518 33.7857 202.57 38.7904H224.837ZM213.703 7.5858C215.835 7.5858 216.189 13.3155 216.189 20.3831C216.189 27.4509 215.835 33.1807 213.703 33.1807C211.572 33.1807 211.218 27.4509 211.218 20.3831C211.218 13.3155 211.572 7.5858 213.703 7.5858ZM182.675 26.0555C182.675 18.9272 182.321 10.1029 180.19 10.1029C178.058 10.1029 177.705 16.9222 177.705 26.0555C177.705 31.1784 177.869 35.7406 178.174 38.7906H166.628C166.074 34.8151 165.772 30.5274 165.772 26.0555C165.772 16.885 167.043 8.48594 169.151 1.9766H191.229C193.337 8.48576 194.608 16.8849 194.608 26.0555C194.608 30.5274 194.305 34.8149 193.751 38.7906H182.219C182.545 35.7707 182.675 33.1834 182.675 26.0555ZM148.25 31.6861C148.735 31.6861 149.04 32.0544 149.071 32.5267C148.988 34.9728 148.78 37.0779 148.728 38.7904H160.238C160.791 34.8149 161.094 30.5272 161.094 26.0553C161.094 16.8849 159.823 8.48576 157.715 1.97642H135.638C133.529 8.48558 132.258 16.8847 132.258 26.0553C132.258 30.5272 132.561 34.8148 133.115 38.7904H144.585C144.514 36.728 144.282 34.5645 144.282 32.5223C144.282 32.0605 144.65 31.6861 145.104 31.6861H148.25ZM149.154 23.9962C149.096 15.9164 148.644 10.1029 146.676 10.1029C144.706 10.1029 144.255 15.9252 144.198 24.0151C144.204 24.4709 144.569 24.8394 145.019 24.8394H148.333C148.822 24.8394 149.12 24.4705 149.154 23.9962ZM46.6154 21.6039L46.6158 21.5965C46.6158 21.1348 46.9837 20.7603 47.4375 20.7603H47.4393L63.5136 20.7633C63.5143 20.6367 63.5149 20.51 63.5149 20.3833C63.5149 13.3932 62.2823 6.98137 60.2305 1.9766H37.9631C35.9114 6.98137 34.6787 13.3932 34.6787 20.3833C34.6787 27.3739 35.9114 33.7859 37.9631 38.7906H60.2305C61.891 34.7397 63.0149 29.7681 63.3832 24.3136H51.5319C51.378 29.4584 50.8151 33.1809 49.0968 33.1809C47.0896 33.1809 46.6593 28.0989 46.6154 21.6039ZM51.4064 13.8576C51.1415 10.1027 50.5097 7.5858 49.0968 7.5858C47.6888 7.5858 47.0565 10.0874 46.7897 13.8234C46.7945 14.2804 47.1606 14.6499 47.6106 14.6499H50.5867C51.0254 14.6499 51.3842 14.2986 51.4064 13.8576ZM27.0393 1.9766C28.6998 6.0268 29.8236 10.9991 30.1915 16.4535H18.3402C18.1863 11.3087 17.6239 7.5858 15.9056 7.5858C13.774 7.5858 13.42 13.3155 13.42 20.3831C13.42 27.4509 13.774 33.1807 15.9056 33.1807C17.6239 33.1807 18.1864 29.4583 18.3402 24.3135H30.1915C29.8236 29.7679 28.6998 34.7395 27.0393 38.7904H4.77194C2.72033 33.7858 1.48769 27.3738 1.48769 20.3831C1.48769 13.3931 2.72033 6.98119 4.77194 1.97642L27.0393 1.9766ZM99.3202 32.0243C99.7739 32.0243 100.142 31.6498 100.142 31.1879C100.142 28.5643 99.6129 25.5274 99.6129 22.6341C99.6129 14.6418 101.013 7.37587 103.299 1.97651H123.129C125.414 7.37587 126.814 17.1573 126.814 22.6341C126.814 28.1108 126.622 28.4563 126.264 31.1592C126.364 31.6297 126.5 32.0243 127.088 32.0243H128.971C128.695 34.3737 128.337 36.6361 127.905 38.7903H98.5224C98.0903 36.6361 97.732 34.3737 97.4563 32.0243H99.3202ZM115.558 22.6341C115.558 22.0398 115.554 21.423 115.544 20.7963C115.463 15.7928 115 10.1487 113.214 10.1487C111.203 10.1487 110.869 15.2708 110.869 22.6341C110.869 25.8591 110.933 28.8159 111.174 31.1214C111.353 31.4064 111.231 32.0243 112.017 32.0243H114.434C114.847 32.0243 115.137 31.7325 115.233 31.3117C115.49 28.9793 115.558 27.9728 115.558 22.6341ZM80.8071 39.9804V47.5817H67.308V0.786651H90.5546L90.9047 1.29029C92.6638 3.82306 93.9332 6.77352 94.7833 9.86345C95.7356 13.3257 96.162 16.9629 96.162 20.3831C96.162 23.8036 95.7356 27.4407 94.7833 30.9028C93.9333 33.9929 92.6639 36.9436 90.9047 39.4766L90.5548 39.9804H80.8071ZM80.3441 47.1102V39.5088H90.3166L90.5269 39.2058C92.2544 36.7185 93.5021 33.8167 94.3385 30.7755C95.2782 27.3593 95.6992 23.7657 95.6992 20.383C95.6992 17.0004 95.2782 13.4068 94.3385 9.99024C93.5019 6.94922 92.2544 4.04775 90.5269 1.56054L90.3166 1.25778H67.7713V47.1099L80.3441 47.1102ZM201.792 39.9804L201.491 39.2482C200.349 36.4621 199.528 33.4675 198.982 30.413C198.385 27.0723 198.117 23.6649 198.117 20.3833C198.117 17.1018 198.385 13.6946 198.982 10.354C199.528 7.29953 200.349 4.30505 201.491 1.51897L201.792 0.786832H225.615L225.916 1.51897C227.058 4.30541 227.879 7.30016 228.425 10.355C229.022 13.695 229.29 17.1019 229.29 20.3833C229.29 23.6649 229.022 27.0719 228.425 30.4122C227.879 33.467 227.058 36.4619 225.916 39.2482L225.615 39.9804H201.792ZM202.099 39.509H225.308L225.489 39.0678C226.619 36.3102 227.431 33.3484 227.971 30.3291C228.562 27.0245 228.827 23.6448 228.827 20.3831C228.827 17.1217 228.562 13.7423 227.971 10.4376C227.431 7.41853 226.619 4.45711 225.489 1.6991L225.308 1.25796H202.099L201.918 1.6991C200.788 4.45666 199.976 7.41781 199.436 10.4367C198.845 13.7418 198.58 17.1215 198.58 20.3831C198.58 23.645 198.845 27.0248 199.436 30.3301C199.976 33.349 200.787 36.3104 201.918 39.0678L202.099 39.509ZM179.791 11.1433C179.868 11.0199 179.957 10.9107 180.045 10.8612L180.183 10.7833L180.305 10.8879C180.431 10.9957 180.551 11.2088 180.655 11.4469C180.809 11.8001 180.939 12.225 180.986 12.3934C181.148 12.9856 181.271 13.6122 181.368 14.2437C181.465 14.8728 181.536 15.5032 181.596 16.1081C181.76 17.7455 181.853 19.4114 181.905 21.0795C181.958 22.7667 181.969 24.427 181.969 26.0553V26.1354C181.969 30.3293 181.969 34.5239 181.517 38.7108L181.431 39.5089H194.365L194.451 38.892C194.742 36.8021 194.956 34.6968 195.098 32.5858C195.244 30.4155 195.314 28.2349 195.314 26.0552C195.314 21.8311 195.052 17.4273 194.442 13.0914C193.895 9.19987 193.068 5.36015 191.9 1.75127L191.74 1.25787H168.64L168.48 1.75127C167.312 5.36015 166.485 9.19987 165.938 13.0914C165.328 17.4273 165.066 21.8311 165.066 26.0552C165.066 28.2346 165.136 30.4148 165.282 32.5847C165.424 34.696 165.638 36.8016 165.929 38.8918L166.015 39.5087H178.957L178.877 38.7172C178.785 37.7931 178.715 36.8683 178.66 35.9457C178.606 35.0295 178.565 34.1013 178.531 33.1726C178.488 31.9911 178.458 30.8043 178.439 29.614C178.419 28.3883 178.411 27.2048 178.411 26.055C178.411 25.0467 178.415 24.0068 178.428 22.8957C178.441 21.8391 178.463 20.7847 178.499 19.7354C178.528 18.901 178.564 18.0642 178.618 17.2392C178.672 16.4079 178.746 15.574 178.849 14.7443C178.91 14.2574 178.986 13.7039 179.096 13.1593C179.207 12.6074 179.353 12.0619 179.551 11.5971C179.575 11.539 179.682 11.3156 179.791 11.1433ZM180.146 11.4525C180.063 11.5921 179.992 11.7418 179.974 11.7833C179.791 12.2133 179.654 12.7282 179.548 13.2536C179.441 13.7863 179.366 14.3276 179.306 14.8037C179.205 15.6136 179.133 16.439 179.079 17.2691C179.024 18.1055 178.989 18.9339 178.96 19.7514C178.924 20.8041 178.902 21.8541 178.889 22.9015C178.877 23.8949 178.873 24.9605 178.873 26.0553C178.873 27.2747 178.881 28.4625 178.9 29.6068C178.919 30.7867 178.949 31.9699 178.992 33.1563C179.025 34.0679 179.066 34.9884 179.121 35.918C179.176 36.8411 179.245 37.7604 179.337 38.6694L179.468 39.9804H165.614L165.471 38.9566C165.179 36.854 164.964 34.7372 164.821 32.6163C164.674 30.4275 164.604 28.237 164.604 26.0553C164.604 21.8141 164.867 17.3883 165.48 13.0253C166.031 9.10587 166.864 5.2387 168.041 1.6041L168.306 0.786651H192.074L192.339 1.6041C193.516 5.2387 194.349 9.10587 194.9 13.0253C195.513 17.3882 195.777 21.8141 195.777 26.0553C195.777 28.2372 195.706 30.4279 195.559 32.6173C195.416 34.7379 195.201 36.8543 194.908 38.9568L194.765 39.9804H180.915L181.058 38.6612C181.507 34.509 181.507 30.3217 181.507 26.1354V26.0553C181.507 24.4017 181.495 22.7322 181.444 21.0942C181.392 19.4372 181.3 17.7819 181.137 16.1538C181.077 15.5532 181.007 14.9296 180.913 14.3151C180.818 13.7028 180.699 13.0946 180.541 12.5182C180.498 12.3609 180.377 11.9652 180.233 11.638C180.204 11.5711 180.175 11.5084 180.146 11.4525ZM145.452 32.8759C145.466 33.9756 145.539 35.0885 145.612 36.201C145.667 37.0438 145.723 37.8864 145.753 38.7484L145.796 39.9804H132.1L131.958 38.9568C131.665 36.8545 131.45 34.738 131.307 32.6174C131.16 30.4281 131.089 28.2373 131.089 26.0553C131.089 21.8141 131.353 17.3881 131.966 13.025C132.517 9.10559 133.35 5.23851 134.528 1.6041L134.792 0.786651H158.56L158.825 1.6041C160.002 5.2387 160.835 9.10587 161.386 13.0253C161.999 17.3882 162.262 21.8141 162.262 26.0553C162.262 28.2369 162.192 30.4273 162.045 32.6163C161.902 34.7372 161.687 36.854 161.395 38.9566L161.252 39.9804H147.523L147.56 38.7541C147.593 37.6681 147.664 36.6029 147.734 35.5372C147.793 34.6454 147.852 33.753 147.889 32.8757L145.452 32.8759ZM145.151 36.2324C145.073 35.0408 144.994 33.849 144.989 32.6413L144.988 32.4045H148.369L148.36 32.6485C148.323 33.6372 148.26 34.6032 148.196 35.5686C148.125 36.6421 148.054 37.7152 148.022 38.7673L147.999 39.509H160.851L160.937 38.892C161.228 36.8018 161.442 34.6963 161.584 32.5849C161.73 30.4149 161.8 28.2349 161.8 26.0555C161.8 21.8314 161.538 17.4276 160.928 13.0917C160.381 9.20015 159.554 5.36042 158.386 1.75154L158.226 1.25814H135.127L134.967 1.75154C133.798 5.36024 132.971 9.19978 132.424 13.0914C131.814 17.4276 131.552 21.8316 131.552 26.0557C131.552 28.2355 131.622 30.4161 131.768 32.5865C131.91 34.6975 132.124 36.8028 132.415 38.8925L132.501 39.5093H145.317L145.292 38.7653C145.263 37.9346 145.207 37.0831 145.151 36.2324ZM47.786 21.949C47.7917 22.5977 47.8016 23.2486 47.8184 23.9017C47.8368 24.6242 47.8647 25.3519 47.9058 26.0855C47.939 26.6762 47.9796 27.2728 48.037 27.8624C48.094 28.4489 48.1687 29.0374 48.2705 29.6202C48.3286 29.953 48.4039 30.3358 48.5039 30.7021C48.6027 31.0643 48.7269 31.4164 48.8838 31.6972C48.9142 31.7514 48.9665 31.8413 49.0279 31.9146C49.0627 31.9563 49.0926 31.9909 49.097 31.9909C49.1473 31.9909 49.236 31.8485 49.3321 31.6574C49.553 31.2186 49.7232 30.5766 49.7659 30.3965C49.8666 29.9741 49.9456 29.534 50.01 29.0885C50.0755 28.6357 50.1247 28.1902 50.1657 27.7561C50.2197 27.184 50.2608 26.6041 50.2927 26.0203C50.3249 25.4318 50.3476 24.8518 50.3647 24.2781L50.3993 23.1237H64.635L64.5491 24.3947C64.3732 27.0001 64.0187 29.6579 63.4503 32.265C62.9267 34.666 62.222 37.0207 61.3092 39.2481L61.009 39.9804H37.1852L36.8851 39.2482C35.7427 36.462 34.9216 33.4672 34.3755 30.4123C33.7783 27.072 33.5102 23.6649 33.5102 20.3834C33.5102 17.102 33.7783 13.6949 34.3755 10.3548C34.9218 7.30007 35.7427 4.30514 36.8851 1.51897L37.1852 0.786922H61.009L61.3092 1.51897C62.4516 4.30514 63.2727 7.30007 63.8188 10.3548C64.4157 13.6949 64.684 17.102 64.684 20.3834L64.6767 21.9526L47.786 21.949ZM47.3572 23.9128C47.3384 23.1832 47.3284 22.4496 47.3231 21.7153L47.3212 21.4795L64.2172 21.4828C64.2188 21.1163 64.2205 20.7497 64.2205 20.3831C64.2205 17.1215 63.9552 13.7421 63.3646 10.4374C62.8247 7.41826 62.0125 4.45666 60.882 1.6991L60.7011 1.25796H37.4926L37.3116 1.6991C36.1811 4.45666 35.3687 7.41844 34.8291 10.4374C34.2384 13.7421 33.973 17.1215 33.973 20.3831C33.973 23.6448 34.2382 27.0245 34.8291 30.3295C35.3687 33.3486 36.1811 36.3102 37.3116 39.0678L37.4926 39.509H60.7013L60.8822 39.0678C61.786 36.8629 62.4828 34.5349 62.9998 32.1637C63.5621 29.5848 63.913 26.9503 64.0877 24.3634L64.1397 23.5951H50.8465L50.8256 24.2911C50.8079 24.8818 50.7851 25.469 50.7536 26.0459C50.7218 26.6278 50.6801 27.2128 50.6248 27.8002C50.5818 28.2548 50.5317 28.712 50.4674 29.1566C50.402 29.6082 50.3204 30.0609 50.2141 30.5069C50.1683 30.6997 49.9853 31.3885 49.7425 31.871C49.572 32.2097 49.3572 32.4622 49.0968 32.4622C48.9286 32.4622 48.7864 32.3522 48.675 32.2184C48.5901 32.1164 48.5215 31.9991 48.4822 31.929C48.3047 31.6114 48.1669 31.2232 48.059 30.8273C47.952 30.4351 47.8742 30.0407 47.8149 29.7011C47.7127 29.1167 47.6367 28.5153 47.5778 27.9084C47.519 27.3051 47.4777 26.7035 47.4445 26.1114C47.4338 25.9194 47.4239 25.7266 47.4149 25.5334C47.39 24.9972 47.3712 24.4563 47.3572 23.9128ZM28.1177 1.51879C29.0307 3.74599 29.7353 6.10098 30.2588 8.50197C30.8272 11.1092 31.1815 13.7671 31.3573 16.3724L31.4429 17.6434H17.2074L17.173 16.4891C17.1558 15.9154 17.1331 15.3354 17.1009 14.7469C17.0691 14.1631 17.028 13.5831 16.9739 13.011C16.9331 12.5769 16.8839 12.1314 16.8184 11.6786C16.754 11.2327 16.675 10.7927 16.5745 10.3704C16.5317 10.1906 16.3616 9.54819 16.1407 9.10913C16.0445 8.91803 15.9558 8.77575 15.9056 8.77575C15.8965 8.77575 15.8572 8.82312 15.8137 8.87981C15.7436 8.97147 15.6843 9.08132 15.6529 9.14264C15.4859 9.46731 15.3565 9.87151 15.2543 10.2869C15.1495 10.7134 15.0748 11.1443 15.0175 11.5171C14.92 12.1543 14.8488 12.8118 14.7945 13.4768C14.7398 14.1482 14.7038 14.8075 14.6758 15.4542C14.64 16.2787 14.618 17.0997 14.605 17.9168C14.5928 18.695 14.589 19.5271 14.589 20.3831C14.589 21.2392 14.5928 22.0713 14.605 22.8495C14.6178 23.6666 14.6399 24.4876 14.6758 25.3121C14.7037 25.9586 14.7398 26.6181 14.7945 27.2895C14.8486 27.9546 14.92 28.612 15.0175 29.2492C15.0747 29.6222 15.1494 30.0528 15.2543 30.4794C15.3564 30.8948 15.486 31.299 15.6529 31.6237C15.6843 31.685 15.7436 31.795 15.8137 31.8865C15.8572 31.9431 15.8965 31.9905 15.9056 31.9905C15.956 31.9905 16.0445 31.8483 16.1407 31.6574C16.3616 31.2183 16.5317 30.5763 16.5745 30.3963C16.6751 29.9741 16.754 29.5338 16.8184 29.0883C16.8839 28.6353 16.933 28.1899 16.9739 27.7559C17.028 27.1837 17.0691 26.6038 17.1009 26.0201C17.1331 25.4317 17.1558 24.8516 17.173 24.2778L17.2074 23.1235H31.4429L31.3573 24.3945C31.1817 26.9998 30.8274 29.6575 30.259 32.2643C29.7355 34.6655 29.031 37.0207 28.1179 39.2481L27.8177 39.9804H3.9938L3.69356 39.2482C2.55148 36.4617 1.73037 33.4669 1.18416 30.4122C0.587052 27.072 0.318924 23.6647 0.318924 20.3831C0.318924 17.1018 0.587052 13.6948 1.18416 10.3547C1.73037 7.2998 2.55148 4.30505 3.69356 1.51879L3.9938 0.786651H27.8176L28.1177 1.51879ZM29.8085 8.60322C29.2916 6.23193 28.5948 3.90393 27.6909 1.6991L27.5099 1.25796H4.30125L4.1203 1.6991C2.98979 4.45702 2.17758 7.41844 1.63794 10.4375C1.04707 13.7423 0.781875 17.1217 0.781875 20.3831C0.781875 23.6448 1.04707 27.0245 1.63794 30.3293C2.17767 33.3484 2.98979 36.3098 4.1203 39.0678L4.30125 39.509H27.5101L27.6911 39.0678C28.5948 36.8626 29.2916 34.5344 29.8087 32.163C30.3708 29.5845 30.7217 26.95 30.8961 24.3633L30.9479 23.5952H17.6549L17.634 24.2912C17.6163 24.882 17.5935 25.4692 17.5619 26.0461C17.5301 26.6279 17.4884 27.2129 17.4331 27.8006C17.3902 28.2551 17.3402 28.7124 17.276 29.1567C17.2108 29.6083 17.1291 30.0612 17.0229 30.507C16.9771 30.6996 16.7941 31.3884 16.5513 31.8711C16.3809 32.2098 16.1664 32.4622 15.9058 32.4622C15.7241 32.4622 15.5699 32.3315 15.4504 32.1758C15.3577 32.0548 15.2834 31.9174 15.2442 31.8411C15.0569 31.4765 14.9152 31.0382 14.8059 30.5937C14.6992 30.1599 14.6218 29.7116 14.5618 29.321C14.46 28.6561 14.3872 27.9899 14.3335 27.3282C14.2801 26.673 14.2437 26.002 14.2146 25.3324C14.1791 24.5131 14.1571 23.6867 14.1438 22.8571C14.1302 21.9884 14.1258 21.1727 14.1258 20.3833C14.1258 19.5937 14.1302 18.778 14.1438 17.9094C14.1569 17.0797 14.1789 16.2534 14.2146 15.4342C14.2437 14.7646 14.2801 14.0935 14.3335 13.4384C14.3872 12.7767 14.46 12.1105 14.5618 11.4455C14.6217 11.0549 14.6992 10.6066 14.8059 10.1729C14.9152 9.72824 15.0569 9.29017 15.2442 8.92564C15.2834 8.84929 15.3577 8.7119 15.4504 8.591C15.5699 8.43513 15.7241 8.30454 15.9058 8.30454C16.1662 8.30454 16.381 8.55704 16.5513 8.89575C16.7943 9.37847 16.9771 10.0674 17.0229 10.26C17.1291 10.7058 17.2108 11.1586 17.276 11.6104C17.3402 12.0547 17.3904 12.5121 17.4331 12.9668C17.4886 13.5542 17.5301 14.1394 17.5619 14.7211C17.5935 15.2982 17.6163 15.8854 17.634 16.4761L17.6549 17.1722H30.9479L30.8961 16.404C30.7217 13.8172 30.3706 11.1821 29.8085 8.60322ZM98.9706 30.8342C98.9518 29.7062 98.8468 28.5643 98.743 27.4362L98.7142 27.1215C98.6454 26.3673 98.5774 25.6126 98.5283 24.8856C98.4776 24.1328 98.444 23.3812 98.444 22.6339C98.444 18.9554 98.7386 15.0641 99.4191 11.2588C100.026 7.86411 100.94 4.54206 102.225 1.50584L102.53 0.78656H123.897L124.202 1.50584C125.487 4.54188 126.401 7.86393 127.008 11.2587C127.688 15.0638 127.983 18.9552 127.983 22.634C127.983 24.0569 127.939 25.4865 127.849 26.918C127.767 28.2246 127.646 29.5313 127.483 30.8343H130.287L130.131 32.1651C129.997 33.3066 129.84 34.4548 129.659 35.6076C129.48 36.7524 129.277 37.8935 129.049 39.0282L128.858 39.9803H97.5683L97.3774 39.0282C97.1498 37.8933 96.9469 36.7524 96.7671 35.6076C96.5861 34.4548 96.4295 33.3066 96.2953 32.1651L96.139 30.8343L98.9706 30.8342ZM99.2023 27.3939C99.3141 28.6105 99.4276 29.8428 99.4345 31.0689L99.4357 31.3057H96.6603L96.7548 32.11C96.8901 33.2625 97.0457 34.4049 97.223 35.534C97.4015 36.6713 97.6033 37.8055 97.8297 38.9346L97.945 39.5092H128.482L128.597 38.9346C128.824 37.8058 129.025 36.6714 129.204 35.534C129.381 34.4049 129.536 33.2625 129.672 32.11L129.766 31.3057H126.958L126.992 31.0397C127.169 29.6647 127.301 28.2794 127.388 26.8886C127.477 25.4771 127.52 24.0571 127.52 22.6339C127.52 18.9748 127.228 15.1109 126.554 11.3415C125.954 7.98466 125.049 4.69802 123.777 1.69177L123.593 1.25805H102.834L102.65 1.69195C101.378 4.69829 100.473 7.9852 99.8731 11.3419C99.1989 15.1112 98.9071 18.975 98.9071 22.6342C98.9071 23.3788 98.9401 24.1185 98.9897 24.8546C99.0411 25.6165 99.1071 26.3493 99.1738 27.0793L99.2023 27.3939ZM80.9003 29.0702C81.0124 28.9184 81.1096 28.7045 81.191 28.4801C81.3402 28.0685 81.4291 27.6304 81.4723 27.4129C81.569 26.9256 81.6389 26.4212 81.6911 25.9131C81.7432 25.4052 81.778 24.8925 81.8054 24.3891C81.8418 23.7172 81.8637 23.051 81.8761 22.3895C81.8879 21.7578 81.8915 21.079 81.8915 20.3831C81.8915 19.6731 81.8894 18.9818 81.8807 18.3597C81.8711 17.6907 81.854 17.0183 81.8237 16.3418C81.8009 15.8265 81.7714 15.3038 81.7258 14.7886C81.6802 14.2717 81.6177 13.7571 81.5283 13.2555C81.4903 13.0423 81.4042 12.5652 81.2543 12.1268C81.165 11.8651 81.0563 11.6189 80.931 11.4706C80.8051 12.1737 80.8059 13.6047 80.8062 14.0561C80.8745 18.0005 80.8206 22.0315 80.8054 25.9829C80.8018 26.6492 80.7933 28.2297 80.9003 29.0702ZM81.6249 28.6423C81.4513 29.121 81.1958 29.5724 80.8244 29.7142L80.5899 29.8036L80.5213 29.5587C80.3286 28.8694 80.3397 26.7815 80.3441 25.981C80.3595 22.0073 80.344 18.0303 80.344 14.056C80.3444 13.5107 80.3433 11.5901 80.5758 11.0145L80.6508 10.8289L80.8415 10.8746C81.2436 10.9713 81.5125 11.4527 81.6898 11.9722C81.8503 12.442 81.9416 12.9471 81.9817 13.1727C82.0733 13.6877 82.1377 14.216 82.1845 14.7461C82.2317 15.2773 82.2613 15.8051 82.2843 16.3216C82.3143 16.9929 82.3315 17.672 82.3413 18.3542C82.3516 19.0834 82.3541 19.7438 82.3541 20.3831C82.3541 21.0254 82.3502 21.6882 82.3368 22.3969C82.324 23.0758 82.302 23.7503 82.2661 24.4149C82.2385 24.9231 82.2031 25.4423 82.1499 25.9611C82.0966 26.4798 82.0247 26.9984 81.9241 27.5052C81.8779 27.7377 81.7833 28.2052 81.6249 28.6423ZM213.703 8.77539C213.694 8.77539 213.655 8.82285 213.611 8.87954C213.541 8.97101 213.482 9.08087 213.451 9.14236C213.284 9.46704 213.154 9.87124 213.052 10.2867C212.947 10.7131 212.873 11.144 212.815 11.5168C212.718 12.1542 212.647 12.8116 212.593 13.4764C212.538 14.1479 212.502 14.8073 212.474 15.4539C212.438 16.2786 212.416 17.0994 212.403 17.9167C212.391 18.6949 212.387 19.527 212.387 20.3831C212.387 21.2391 212.391 22.0712 212.403 22.8494C212.416 23.6665 212.438 24.4873 212.474 25.3122C212.502 25.9587 212.538 26.6182 212.593 27.2896C212.647 27.9546 212.718 28.6121 212.815 29.2493C212.873 29.6221 212.947 30.0531 213.052 30.4794C213.154 30.8949 213.284 31.2991 213.451 31.6238C213.482 31.6851 213.541 31.7951 213.611 31.8866C213.655 31.9432 213.694 31.9906 213.703 31.9906C213.713 31.9906 213.752 31.9433 213.795 31.8866C213.866 31.7951 213.925 31.6851 213.956 31.6238C214.123 31.2991 214.253 30.8949 214.355 30.4794C214.46 30.0531 214.535 29.6223 214.592 29.2493C214.689 28.6121 214.761 27.9546 214.815 27.2896C214.869 26.6182 214.905 25.9587 214.933 25.3122C214.969 24.4877 214.991 23.6667 215.004 22.8496C215.016 22.0714 215.02 21.2389 215.02 20.3832C215.02 19.5276 215.016 18.6949 215.004 17.9169C214.991 17.0998 214.969 16.2788 214.933 15.4543C214.905 14.8078 214.869 14.1483 214.815 13.4769C214.761 12.8117 214.689 12.1544 214.592 11.5172C214.535 11.1442 214.46 10.7134 214.355 10.287C214.253 9.8716 214.123 9.46741 213.956 9.14273C213.925 9.08141 213.866 8.97138 213.795 8.8799C213.752 8.8233 213.713 8.77539 213.703 8.77539ZM213.248 8.59054C213.367 8.43468 213.522 8.30408 213.703 8.30408C213.885 8.30408 214.04 8.43468 214.159 8.59054C214.252 8.71154 214.326 8.84893 214.365 8.92519C214.552 9.28981 214.694 9.72805 214.803 10.1725C214.91 10.6063 214.987 11.0546 215.047 11.4452C215.149 12.11 215.222 12.7761 215.276 13.4379C215.329 14.0931 215.365 14.7643 215.395 15.4338C215.43 16.2531 215.452 17.0794 215.465 17.9091C215.479 18.7778 215.483 19.5931 215.483 20.3829C215.483 21.1729 215.479 21.9882 215.465 22.8567C215.452 23.6864 215.43 24.5127 215.395 25.3319C215.365 26.0015 215.329 26.6726 215.276 27.3278C215.222 27.9896 215.149 28.6556 215.047 29.3206C214.987 29.7112 214.91 30.1595 214.803 30.5933C214.694 31.0379 214.552 31.4759 214.365 31.8407C214.326 31.917 214.252 32.0542 214.159 32.1753C214.039 32.3312 213.885 32.4618 213.703 32.4618C213.522 32.4618 213.367 32.3312 213.248 32.1753C213.155 32.0546 213.081 31.9171 213.042 31.8408C212.855 31.4763 212.713 31.0381 212.604 30.5935C212.497 30.1598 212.42 29.7114 212.36 29.3207C212.258 28.6559 212.185 27.9896 212.132 27.328C212.078 26.673 212.042 26.0017 212.013 25.3321C211.978 24.5127 211.956 23.6864 211.942 22.8567C211.929 21.988 211.924 21.1723 211.924 20.3829C211.924 19.5932 211.929 18.7776 211.942 17.9091C211.956 17.0792 211.978 16.2529 212.013 15.4336C212.042 14.7641 212.078 14.0927 212.132 13.4377C212.185 12.7761 212.258 12.1099 212.36 11.4449C212.42 11.0546 212.497 10.6061 212.604 10.1723C212.713 9.7276 212.855 9.28962 213.042 8.925C213.081 8.84875 213.155 8.71136 213.248 8.59054ZM147.983 23.6489C147.977 22.8273 147.965 22.0034 147.947 21.1775C147.926 20.2814 147.896 19.3805 147.853 18.4743C147.819 17.7711 147.777 17.0553 147.716 16.3268C147.657 15.6123 147.58 14.8995 147.476 14.1971C147.416 13.7942 147.34 13.3332 147.236 12.8853C147.133 12.4428 147.003 12.0103 146.834 11.6559C146.817 11.6201 146.749 11.4907 146.676 11.3818C146.603 11.4912 146.535 11.6211 146.517 11.6573C146.348 12.0123 146.218 12.4454 146.115 12.8887C146.011 13.3374 145.935 13.799 145.875 14.2026C145.771 14.9061 145.694 15.6199 145.635 16.3354C145.575 17.0649 145.533 17.7816 145.499 18.4858C145.455 19.3901 145.426 20.2891 145.405 21.1834C145.387 22.0075 145.375 22.8292 145.368 23.649L147.983 23.6489ZM148.408 21.1685C148.428 22.071 148.44 22.9772 148.447 23.8836L148.448 24.1204H144.904L144.906 23.8836C144.913 22.979 144.924 22.0747 144.944 21.1742C144.965 20.2646 144.995 19.3597 145.038 18.4636C145.073 17.7364 145.115 17.0078 145.174 16.2965C145.234 15.5708 145.312 14.8466 145.418 14.1325C145.479 13.7216 145.557 13.2494 145.665 12.782C145.775 12.3094 145.915 11.8433 146.101 11.4529C146.126 11.4016 146.236 11.1942 146.344 11.0481C146.439 10.9185 146.552 10.8211 146.676 10.8211C146.8 10.8211 146.913 10.9183 147.009 11.0478C147.116 11.1938 147.226 11.4005 147.25 11.4515C147.436 11.8413 147.577 12.3067 147.686 12.7786C147.795 13.2451 147.873 13.7165 147.933 14.127C148.04 14.8399 148.118 15.5635 148.178 16.2882C148.236 16.9987 148.279 17.726 148.314 18.4523C148.357 19.3502 148.387 20.2571 148.408 21.1685ZM146.678 11.2999L146.687 11.293L146.665 11.2932C146.668 11.2962 146.673 11.3015 146.678 11.2999ZM146.678 11.2999C146.687 11.2965 146.693 11.294 146.687 11.293L146.678 11.2999ZM146.665 11.2932C146.661 11.2942 146.665 11.2963 146.673 11.2993L146.665 11.2932ZM50.205 13.4597C50.1595 12.882 50.1003 12.2649 50.0123 11.6575C49.9118 10.9658 49.7739 10.2876 49.5761 9.69672C49.5331 9.56821 49.3989 9.19833 49.2382 8.94928C49.1738 8.84956 49.1185 8.77539 49.097 8.77539C49.0757 8.77539 49.0213 8.84839 48.9575 8.9471C48.7974 9.19426 48.6637 9.56051 48.6209 9.68811C48.4219 10.2802 48.2832 10.9611 48.1824 11.6545C48.0939 12.2637 48.0345 12.8822 47.9889 13.46L50.205 13.4597ZM50.4697 11.5893C50.5728 12.2991 50.6369 13.02 50.6854 13.6779L50.704 13.931H47.4895L47.5083 13.6779C47.5571 13.0205 47.6213 12.298 47.7247 11.5861C47.8289 10.8685 47.9736 10.1602 48.1833 9.53705C48.2313 9.39432 48.3821 8.98251 48.5722 8.68926C48.7152 8.46819 48.8911 8.30408 49.0968 8.30408C49.3036 8.30408 49.4797 8.46901 49.6233 8.69134C49.8143 8.9874 49.9657 9.40229 50.0135 9.54556C50.2219 10.1677 50.3658 10.8737 50.4697 11.5893ZM113.156 11.4181L113.155 11.4194C113.101 11.491 113.054 11.5768 113.028 11.6269C112.873 11.9209 112.753 12.2932 112.659 12.6763C112.562 13.0717 112.493 13.4711 112.441 13.8118C112.347 14.4288 112.28 15.066 112.23 15.7099C112.179 16.3612 112.146 17.0001 112.12 17.626C112.085 18.4634 112.064 19.2972 112.052 20.1277C112.041 20.9134 112.038 21.762 112.038 22.6339C112.038 24.0054 112.041 25.4008 112.077 26.7508C112.114 28.1171 112.184 29.483 112.318 30.8212L112.322 30.8343H114.109C114.154 30.41 114.195 29.9835 114.231 29.5489C114.272 29.043 114.305 28.5441 114.325 28.0516C114.391 26.4079 114.391 24.7519 114.39 23.1087L114.39 22.6339C114.389 21.3672 114.377 20.084 114.328 18.8242C114.278 17.5547 114.192 16.2842 114.044 15.0372C113.988 14.5673 113.922 14.0779 113.836 13.603C113.749 13.1268 113.641 12.6547 113.498 12.2132C113.46 12.0933 113.352 11.795 113.231 11.5552C113.205 11.5046 113.18 11.4576 113.156 11.4181ZM112.788 11.1341C112.884 11.0069 113.008 10.8947 113.157 10.8715L113.242 10.8581L113.317 10.9074C113.434 10.9848 113.545 11.1512 113.641 11.3395C113.777 11.6064 113.895 11.9354 113.938 12.0676C114.086 12.5266 114.199 13.0198 114.29 13.5179C114.381 14.0171 114.447 14.5122 114.503 14.9819C114.652 16.233 114.739 17.5169 114.789 18.8058C114.839 20.1041 114.852 21.3844 114.852 22.6339L114.851 23.1087C114.852 24.7609 114.852 26.426 114.786 28.0698C114.765 28.5912 114.732 29.0942 114.692 29.5876C114.651 30.0807 114.601 30.5833 114.546 31.0957L114.523 31.3056H111.973L111.914 31.0881C111.901 31.0407 111.888 30.9936 111.873 30.9484L111.864 30.9222L111.861 30.8952C111.725 29.5397 111.653 28.1519 111.616 26.7622C111.578 25.3476 111.575 23.9752 111.575 22.6342C111.575 21.8346 111.579 21.0094 111.591 20.1223C111.603 19.2796 111.624 18.4404 111.658 17.6078C111.685 16.9595 111.719 16.3082 111.768 15.6732C111.819 15.0305 111.888 14.3841 111.985 13.7402C112.04 13.3824 112.111 12.9653 112.21 12.5621C112.312 12.1467 112.445 11.7376 112.621 11.4042C112.654 11.3414 112.713 11.2334 112.788 11.1341Z" fill="#006633"/>
</svg>
